STARTFONT 2.1
FONT -xos4-Terminus-Bold-R-Normal--16-160-72-72-C-80-ISO8859-15
SIZE 16 72 72
FONTBOUNDINGBOX 8 16 0 -4

STARTPROPERTIES 23
FAMILY_NAME "Terminus"
FOUNDRY "xos4"
SETWIDTH_NAME "Normal"
ADD_STYLE_NAME ""
COPYRIGHT "Copyright (C) 2015 Dimitar Toshkov Zhekov"
NOTICE "Licensed under the SIL Open Font License, Version 1.1"
WEIGHT_NAME "Bold"
SLANT "R"
PIXEL_SIZE 16
POINT_SIZE 160
RESOLUTION_X 72
RESOLUTION_Y 72
SPACING "C"
AVERAGE_WIDTH 80
CHARSET_REGISTRY "ISO8859"
CHARSET_ENCODING "15"
MIN_SPACE 8
WEIGHT 10
X_HEIGHT 12
QUAD_WIDTH 8
DEFAULT_CHAR 63
FONT_DESCENT 4
FONT_ASCENT 12
ENDPROPERTIES

CHARS 219

STARTCHAR uni0000
ENCODING 0
SWIDTH 500 0
DWIDTH 8 0
BBX 8 16 0 -4
BITMAP
00
00
EE
C6
00
C6
C6
C6
00
C6
C6
EE
00
00
00
00
ENDCHAR

STARTCHAR uni0001
ENCODING 1
SWIDTH 500 0
DWIDTH 8 0
BBX 8 16 0 -4
BITMAP
00
00
00
00
18
3C
7E
FF
7E
3C
18
00
00
00
00
00
ENDCHAR

STARTCHAR uni0002
ENCODING 2
SWIDTH 500 0
DWIDTH 8 0
BBX 8 16 0 -4
BITMAP
AA
55
AA
55
AA
55
AA
55
AA
55
AA
55
AA
55
AA
55
ENDCHAR

STARTCHAR uni0003
ENCODING 3
SWIDTH 500 0
DWIDTH 8 0
BBX 8 16 0 -4
BITMAP
00
CC
CC
FC
CC
CC
CC
00
3F
0C
0C
0C
0C
0C
00
00
ENDCHAR

STARTCHAR uni0004
ENCODING 4
SWIDTH 500 0
DWIDTH 8 0
BBX 8 16 0 -4
BITMAP
00
FC
C0
F0
C0
C0
C0
00
3F
30
3C
30
30
30
00
00
ENDCHAR

STARTCHAR uni0005
ENCODING 5
SWIDTH 500 0
DWIDTH 8 0
BBX 8 16 0 -4
BITMAP
00
78
CC
C0
C0
CC
78
00
3E
33
33
3E
36
33
00
00
ENDCHAR

STARTCHAR uni0006
ENCODING 6
SWIDTH 500 0
DWIDTH 8 0
BBX 8 16 0 -4
BITMAP
00
C0
C0
C0
C0
C0
F8
00
3F
30
3C
30
30
30
00
00
ENDCHAR

STARTCHAR uni0007
ENCODING 7
SWIDTH 500 0
DWIDTH 8 0
BBX 8 16 0 -4
BITMAP
00
38
6C
6C
38
00
00
00
00
00
00
00
00
00
00
00
ENDCHAR

STARTCHAR uni0008
ENCODING 8
SWIDTH 500 0
DWIDTH 8 0
BBX 8 16 0 -4
BITMAP
00
00
00
00
00
18
18
7E
18
18
00
7E
00
00
00
00
ENDCHAR

STARTCHAR uni0009
ENCODING 9
SWIDTH 500 0
DWIDTH 8 0
BBX 8 16 0 -4
BITMAP
00
CC
EC
FC
DC
CC
CC
00
30
30
30
30
30
3F
00
00
ENDCHAR

STARTCHAR uni000A
ENCODING 10
SWIDTH 500 0
DWIDTH 8 0
BBX 8 16 0 -4
BITMAP
00
CC
CC
CC
CC
78
30
00
3F
0C
0C
0C
0C
0C
00
00
ENDCHAR

STARTCHAR uni000B
ENCODING 11
SWIDTH 500 0
DWIDTH 8 0
BBX 8 16 0 -4
BITMAP
18
18
18
18
18
18
18
F8
F8
00
00
00
00
00
00
00
ENDCHAR

STARTCHAR uni000C
ENCODING 12
SWIDTH 500 0
DWIDTH 8 0
BBX 8 16 0 -4
BITMAP
00
00
00
00
00
00
00
F8
F8
18
18
18
18
18
18
18
ENDCHAR

STARTCHAR uni000D
ENCODING 13
SWIDTH 500 0
DWIDTH 8 0
BBX 8 16 0 -4
BITMAP
00
00
00
00
00
00
00
1F
1F
18
18
18
18
18
18
18
ENDCHAR

STARTCHAR uni000E
ENCODING 14
SWIDTH 500 0
DWIDTH 8 0
BBX 8 16 0 -4
BITMAP
18
18
18
18
18
18
18
1F
1F
00
00
00
00
00
00
00
ENDCHAR

STARTCHAR uni000F
ENCODING 15
SWIDTH 500 0
DWIDTH 8 0
BBX 8 16 0 -4
BITMAP
18
18
18
18
18
18
18
FF
FF
18
18
18
18
18
18
18
ENDCHAR

STARTCHAR uni0012
ENCODING 18
SWIDTH 500 0
DWIDTH 8 0
BBX 8 16 0 -4
BITMAP
00
00
00
00
00
00
00
FF
FF
00
00
00
00
00
00
00
ENDCHAR

STARTCHAR uni0015
ENCODING 21
SWIDTH 500 0
DWIDTH 8 0
BBX 8 16 0 -4
BITMAP
18
18
18
18
18
18
18
1F
1F
18
18
18
18
18
18
18
ENDCHAR

STARTCHAR uni0016
ENCODING 22
SWIDTH 500 0
DWIDTH 8 0
BBX 8 16 0 -4
BITMAP
18
18
18
18
18
18
18
F8
F8
18
18
18
18
18
18
18
ENDCHAR

STARTCHAR uni0017
ENCODING 23
SWIDTH 500 0
DWIDTH 8 0
BBX 8 16 0 -4
BITMAP
18
18
18
18
18
18
18
FF
FF
00
00
00
00
00
00
00
ENDCHAR

STARTCHAR uni0018
ENCODING 24
SWIDTH 500 0
DWIDTH 8 0
BBX 8 16 0 -4
BITMAP
00
00
00
00
00
00
00
FF
FF
18
18
18
18
18
18
18
ENDCHAR

STARTCHAR uni0019
ENCODING 25
SWIDTH 500 0
DWIDTH 8 0
BBX 8 16 0 -4
BITMAP
18
18
18
18
18
18
18
18
18
18
18
18
18
18
18
18
ENDCHAR

STARTCHAR uni001A
ENCODING 26
SWIDTH 500 0
DWIDTH 8 0
BBX 8 16 0 -4
BITMAP
00
00
00
0C
18
30
60
30
18
0C
00
7E
00
00
00
00
ENDCHAR

STARTCHAR uni001B
ENCODING 27
SWIDTH 500 0
DWIDTH 8 0
BBX 8 16 0 -4
BITMAP
00
00
00
30
18
0C
06
0C
18
30
00
7E
00
00
00
00
ENDCHAR

STARTCHAR uni001C
ENCODING 28
SWIDTH 500 0
DWIDTH 8 0
BBX 8 16 0 -4
BITMAP
00
00
00
00
00
FE
C6
C6
C6
C6
C6
C6
00
00
00
00
ENDCHAR

STARTCHAR uni001D
ENCODING 29
SWIDTH 500 0
DWIDTH 8 0
BBX 8 16 0 -4
BITMAP
00
00
00
00
06
FE
18
30
FE
C0
00
00
00
00
00
00
ENDCHAR

STARTCHAR uni001E
ENCODING 30
SWIDTH 500 0
DWIDTH 8 0
BBX 8 16 0 -4
BITMAP
00
00
38
6C
60
60
F8
60
60
60
66
FE
00
00
00
00
ENDCHAR

STARTCHAR uni001F
ENCODING 31
SWIDTH 500 0
DWIDTH 8 0
BBX 8 16 0 -4
BITMAP
00
00
00
00
00
00
00
18
18
00
00
00
00
00
00
00
ENDCHAR

STARTCHAR space
ENCODING 32
SWIDTH 500 0
DWIDTH 8 0
BBX 8 16 0 -4
BITMAP
00
00
00
00
00
00
00
00
00
00
00
00
00
00
00
00
ENDCHAR

STARTCHAR exclam
ENCODING 33
SWIDTH 500 0
DWIDTH 8 0
BBX 8 16 0 -4
BITMAP
00
00
18
18
18
18
18
18
18
00
18
18
00
00
00
00
ENDCHAR

STARTCHAR quotedbl
ENCODING 34
SWIDTH 500 0
DWIDTH 8 0
BBX 8 16 0 -4
BITMAP
00
66
66
66
00
00
00
00
00
00
00
00
00
00
00
00
ENDCHAR

STARTCHAR numbersign
ENCODING 35
SWIDTH 500 0
DWIDTH 8 0
BBX 8 16 0 -4
BITMAP
00
00
6C
6C
6C
FE
6C
6C
FE
6C
6C
6C
00
00
00
00
ENDCHAR

STARTCHAR dollar
ENCODING 36
SWIDTH 500 0
DWIDTH 8 0
BBX 8 16 0 -4
BITMAP
00
10
10
7C
D6
D0
D0
7C
16
16
D6
7C
10
10
00
00
ENDCHAR

STARTCHAR percent
ENCODING 37
SWIDTH 500 0
DWIDTH 8 0
BBX 8 16 0 -4
BITMAP
00
00
66
D6
6C
0C
18
18
30
36
6B
66
00
00
00
00
ENDCHAR

STARTCHAR ampersand
ENCODING 38
SWIDTH 500 0
DWIDTH 8 0
BBX 8 16 0 -4
BITMAP
00
00
38
6C
6C
38
76
DC
CC
CC
DC
76
00
00
00
00
ENDCHAR

STARTCHAR quotesingle
ENCODING 39
SWIDTH 500 0
DWIDTH 8 0
BBX 8 16 0 -4
BITMAP
00
18
18
18
00
00
00
00
00
00
00
00
00
00
00
00
ENDCHAR

STARTCHAR parenleft
ENCODING 40
SWIDTH 500 0
DWIDTH 8 0
BBX 8 16 0 -4
BITMAP
00
00
0C
18
30
30
30
30
30
30
18
0C
00
00
00
00
ENDCHAR

STARTCHAR parenright
ENCODING 41
SWIDTH 500 0
DWIDTH 8 0
BBX 8 16 0 -4
BITMAP
00
00
30
18
0C
0C
0C
0C
0C
0C
18
30
00
00
00
00
ENDCHAR

STARTCHAR asterisk
ENCODING 42
SWIDTH 500 0
DWIDTH 8 0
BBX 8 16 0 -4
BITMAP
00
00
00
00
00
6C
38
FE
38
6C
00
00
00
00
00
00
ENDCHAR

STARTCHAR plus
ENCODING 43
SWIDTH 500 0
DWIDTH 8 0
BBX 8 16 0 -4
BITMAP
00
00
00
00
00
18
18
7E
18
18
00
00
00
00
00
00
ENDCHAR

STARTCHAR comma
ENCODING 44
SWIDTH 500 0
DWIDTH 8 0
BBX 8 16 0 -4
BITMAP
00
00
00
00
00
00
00
00
00
00
18
18
30
00
00
00
ENDCHAR

STARTCHAR hyphen
ENCODING 45
SWIDTH 500 0
DWIDTH 8 0
BBX 8 16 0 -4
BITMAP
00
00
00
00
00
00
00
FE
00
00
00
00
00
00
00
00
ENDCHAR

STARTCHAR period
ENCODING 46
SWIDTH 500 0
DWIDTH 8 0
BBX 8 16 0 -4
BITMAP
00
00
00
00
00
00
00
00
00
00
18
18
00
00
00
00
ENDCHAR

STARTCHAR slash
ENCODING 47
SWIDTH 500 0
DWIDTH 8 0
BBX 8 16 0 -4
BITMAP
00
00
06
06
0C
0C
18
18
30
30
60
60
00
00
00
00
ENDCHAR

STARTCHAR zero
ENCODING 48
SWIDTH 500 0
DWIDTH 8 0
BBX 8 16 0 -4
BITMAP
00
00
7C
C6
C6
CE
DE
F6
E6
C6
C6
7C
00
00
00
00
ENDCHAR

STARTCHAR one
ENCODING 49
SWIDTH 500 0
DWIDTH 8 0
BBX 8 16 0 -4
BITMAP
00
00
18
38
78
18
18
18
18
18
18
7E
00
00
00
00
ENDCHAR

STARTCHAR two
ENCODING 50
SWIDTH 500 0
DWIDTH 8 0
BBX 8 16 0 -4
BITMAP
00
00
7C
C6
C6
06
0C
18
30
60
C0
FE
00
00
00
00
ENDCHAR

STARTCHAR three
ENCODING 51
SWIDTH 500 0
DWIDTH 8 0
BBX 8 16 0 -4
BITMAP
00
00
7C
C6
C6
06
3C
06
06
C6
C6
7C
00
00
00
00
ENDCHAR

STARTCHAR four
ENCODING 52
SWIDTH 500 0
DWIDTH 8 0
BBX 8 16 0 -4
BITMAP
00
00
06
0E
1E
36
66
C6
FE
06
06
06
00
00
00
00
ENDCHAR

STARTCHAR five
ENCODING 53
SWIDTH 500 0
DWIDTH 8 0
BBX 8 16 0 -4
BITMAP
00
00
FE
C0
C0
C0
FC
06
06
06
C6
7C
00
00
00
00
ENDCHAR

STARTCHAR six
ENCODING 54
SWIDTH 500 0
DWIDTH 8 0
BBX 8 16 0 -4
BITMAP
00
00
3C
60
C0
C0
FC
C6
C6
C6
C6
7C
00
00
00
00
ENDCHAR

STARTCHAR seven
ENCODING 55
SWIDTH 500 0
DWIDTH 8 0
BBX 8 16 0 -4
BITMAP
00
00
FE
06
06
0C
0C
18
18
30
30
30
00
00
00
00
ENDCHAR

STARTCHAR eight
ENCODING 56
SWIDTH 500 0
DWIDTH 8 0
BBX 8 16 0 -4
BITMAP
00
00
7C
C6
C6
C6
7C
C6
C6
C6
C6
7C
00
00
00
00
ENDCHAR

STARTCHAR nine
ENCODING 57
SWIDTH 500 0
DWIDTH 8 0
BBX 8 16 0 -4
BITMAP
00
00
7C
C6
C6
C6
C6
7E
06
06
0C
78
00
00
00
00
ENDCHAR

STARTCHAR colon
ENCODING 58
SWIDTH 500 0
DWIDTH 8 0
BBX 8 16 0 -4
BITMAP
00
00
00
00
00
18
18
00
00
00
18
18
00
00
00
00
ENDCHAR

STARTCHAR semicolon
ENCODING 59
SWIDTH 500 0
DWIDTH 8 0
BBX 8 16 0 -4
BITMAP
00
00
00
00
00
18
18
00
00
00
18
18
30
00
00
00
ENDCHAR

STARTCHAR less
ENCODING 60
SWIDTH 500 0
DWIDTH 8 0
BBX 8 16 0 -4
BITMAP
00
00
00
06
0C
18
30
60
30
18
0C
06
00
00
00
00
ENDCHAR

STARTCHAR equal
ENCODING 61
SWIDTH 500 0
DWIDTH 8 0
BBX 8 16 0 -4
BITMAP
00
00
00
00
00
FE
00
00
FE
00
00
00
00
00
00
00
ENDCHAR

STARTCHAR greater
ENCODING 62
SWIDTH 500 0
DWIDTH 8 0
BBX 8 16 0 -4
BITMAP
00
00
00
60
30
18
0C
06
0C
18
30
60
00
00
00
00
ENDCHAR

STARTCHAR question
ENCODING 63
SWIDTH 500 0
DWIDTH 8 0
BBX 8 16 0 -4
BITMAP
00
00
7C
C6
C6
C6
0C
18
18
00
18
18
00
00
00
00
ENDCHAR

STARTCHAR at
ENCODING 64
SWIDTH 500 0
DWIDTH 8 0
BBX 8 16 0 -4
BITMAP
00
00
7C
C6
CE
D6
D6
D6
D6
CE
C0
7E
00
00
00
00
ENDCHAR

STARTCHAR A
ENCODING 65
SWIDTH 500 0
DWIDTH 8 0
BBX 8 16 0 -4
BITMAP
00
00
7C
C6
C6
C6
C6
FE
C6
C6
C6
C6
00
00
00
00
ENDCHAR

STARTCHAR B
ENCODING 66
SWIDTH 500 0
DWIDTH 8 0
BBX 8 16 0 -4
BITMAP
00
00
FC
C6
C6
C6
FC
C6
C6
C6
C6
FC
00
00
00
00
ENDCHAR

STARTCHAR C
ENCODING 67
SWIDTH 500 0
DWIDTH 8 0
BBX 8 16 0 -4
BITMAP
00
00
7C
C6
C6
C0
C0
C0
C0
C6
C6
7C
00
00
00
00
ENDCHAR

STARTCHAR D
ENCODING 68
SWIDTH 500 0
DWIDTH 8 0
BBX 8 16 0 -4
BITMAP
00
00
F8
CC
C6
C6
C6
C6
C6
C6
CC
F8
00
00
00
00
ENDCHAR

STARTCHAR E
ENCODING 69
SWIDTH 500 0
DWIDTH 8 0
BBX 8 16 0 -4
BITMAP
00
00
FE
C0
C0
C0
F8
C0
C0
C0
C0
FE
00
00
00
00
ENDCHAR

STARTCHAR F
ENCODING 70
SWIDTH 500 0
DWIDTH 8 0
BBX 8 16 0 -4
BITMAP
00
00
FE
C0
C0
C0
F8
C0
C0
C0
C0
C0
00
00
00
00
ENDCHAR

STARTCHAR G
ENCODING 71
SWIDTH 500 0
DWIDTH 8 0
BBX 8 16 0 -4
BITMAP
00
00
7C
C6
C6
C0
C0
DE
C6
C6
C6
7C
00
00
00
00
ENDCHAR

STARTCHAR H
ENCODING 72
SWIDTH 500 0
DWIDTH 8 0
BBX 8 16 0 -4
BITMAP
00
00
C6
C6
C6
C6
FE
C6
C6
C6
C6
C6
00
00
00
00
ENDCHAR

STARTCHAR I
ENCODING 73
SWIDTH 500 0
DWIDTH 8 0
BBX 8 16 0 -4
BITMAP
00
00
3C
18
18
18
18
18
18
18
18
3C
00
00
00
00
ENDCHAR

STARTCHAR J
ENCODING 74
SWIDTH 500 0
DWIDTH 8 0
BBX 8 16 0 -4
BITMAP
00
00
1E
0C
0C
0C
0C
0C
0C
CC
CC
78
00
00
00
00
ENDCHAR

STARTCHAR K
ENCODING 75
SWIDTH 500 0
DWIDTH 8 0
BBX 8 16 0 -4
BITMAP
00
00
C6
C6
CC
D8
F0
F0
D8
CC
C6
C6
00
00
00
00
ENDCHAR

STARTCHAR L
ENCODING 76
SWIDTH 500 0
DWIDTH 8 0
BBX 8 16 0 -4
BITMAP
00
00
C0
C0
C0
C0
C0
C0
C0
C0
C0
FE
00
00
00
00
ENDCHAR

STARTCHAR M
ENCODING 77
SWIDTH 500 0
DWIDTH 8 0
BBX 8 16 0 -4
BITMAP
00
00
82
C6
EE
FE
D6
C6
C6
C6
C6
C6
00
00
00
00
ENDCHAR

STARTCHAR N
ENCODING 78
SWIDTH 500 0
DWIDTH 8 0
BBX 8 16 0 -4
BITMAP
00
00
C6
C6
C6
E6
F6
DE
CE
C6
C6
C6
00
00
00
00
ENDCHAR

STARTCHAR O
ENCODING 79
SWIDTH 500 0
DWIDTH 8 0
BBX 8 16 0 -4
BITMAP
00
00
7C
C6
C6
C6
C6
C6
C6
C6
C6
7C
00
00
00
00
ENDCHAR

STARTCHAR P
ENCODING 80
SWIDTH 500 0
DWIDTH 8 0
BBX 8 16 0 -4
BITMAP
00
00
FC
C6
C6
C6
C6
FC
C0
C0
C0
C0
00
00
00
00
ENDCHAR

STARTCHAR Q
ENCODING 81
SWIDTH 500 0
DWIDTH 8 0
BBX 8 16 0 -4
BITMAP
00
00
7C
C6
C6
C6
C6
C6
C6
C6
DE
7C
06
00
00
00
ENDCHAR

STARTCHAR R
ENCODING 82
SWIDTH 500 0
DWIDTH 8 0
BBX 8 16 0 -4
BITMAP
00
00
FC
C6
C6
C6
C6
FC
F0
D8
CC
C6
00
00
00
00
ENDCHAR

STARTCHAR S
ENCODING 83
SWIDTH 500 0
DWIDTH 8 0
BBX 8 16 0 -4
BITMAP
00
00
7C
C6
C0
C0
7C
06
06
C6
C6
7C
00
00
00
00
ENDCHAR

STARTCHAR T
ENCODING 84
SWIDTH 500 0
DWIDTH 8 0
BBX 8 16 0 -4
BITMAP
00
00
FF
18
18
18
18
18
18
18
18
18
00
00
00
00
ENDCHAR

STARTCHAR U
ENCODING 85
SWIDTH 500 0
DWIDTH 8 0
BBX 8 16 0 -4
BITMAP
00
00
C6
C6
C6
C6
C6
C6
C6
C6
C6
7C
00
00
00
00
ENDCHAR

STARTCHAR V
ENCODING 86
SWIDTH 500 0
DWIDTH 8 0
BBX 8 16 0 -4
BITMAP
00
00
C6
C6
C6
C6
C6
6C
6C
6C
38
38
00
00
00
00
ENDCHAR

STARTCHAR W
ENCODING 87
SWIDTH 500 0
DWIDTH 8 0
BBX 8 16 0 -4
BITMAP
00
00
C6
C6
C6
C6
C6
D6
FE
EE
C6
82
00
00
00
00
ENDCHAR

STARTCHAR X
ENCODING 88
SWIDTH 500 0
DWIDTH 8 0
BBX 8 16 0 -4
BITMAP
00
00
C6
C6
6C
6C
38
38
6C
6C
C6
C6
00
00
00
00
ENDCHAR

STARTCHAR Y
ENCODING 89
SWIDTH 500 0
DWIDTH 8 0
BBX 8 16 0 -4
BITMAP
00
00
C3
C3
66
66
3C
18
18
18
18
18
00
00
00
00
ENDCHAR

STARTCHAR Z
ENCODING 90
SWIDTH 500 0
DWIDTH 8 0
BBX 8 16 0 -4
BITMAP
00
00
FE
06
06
0C
18
30
60
C0
C0
FE
00
00
00
00
ENDCHAR

STARTCHAR bracketleft
ENCODING 91
SWIDTH 500 0
DWIDTH 8 0
BBX 8 16 0 -4
BITMAP
00
00
3C
30
30
30
30
30
30
30
30
3C
00
00
00
00
ENDCHAR

STARTCHAR backslash
ENCODING 92
SWIDTH 500 0
DWIDTH 8 0
BBX 8 16 0 -4
BITMAP
00
00
60
60
30
30
18
18
0C
0C
06
06
00
00
00
00
ENDCHAR

STARTCHAR bracketright
ENCODING 93
SWIDTH 500 0
DWIDTH 8 0
BBX 8 16 0 -4
BITMAP
00
00
3C
0C
0C
0C
0C
0C
0C
0C
0C
3C
00
00
00
00
ENDCHAR

STARTCHAR asciicircum
ENCODING 94
SWIDTH 500 0
DWIDTH 8 0
BBX 8 16 0 -4
BITMAP
00
18
3C
66
00
00
00
00
00
00
00
00
00
00
00
00
ENDCHAR

STARTCHAR underscore
ENCODING 95
SWIDTH 500 0
DWIDTH 8 0
BBX 8 16 0 -4
BITMAP
00
00
00
00
00
00
00
00
00
00
00
00
00
FE
00
00
ENDCHAR

STARTCHAR grave
ENCODING 96
SWIDTH 500 0
DWIDTH 8 0
BBX 8 16 0 -4
BITMAP
30
18
00
00
00
00
00
00
00
00
00
00
00
00
00
00
ENDCHAR

STARTCHAR a
ENCODING 97
SWIDTH 500 0
DWIDTH 8 0
BBX 8 16 0 -4
BITMAP
00
00
00
00
00
7C
06
7E
C6
C6
C6
7E
00
00
00
00
ENDCHAR

STARTCHAR b
ENCODING 98
SWIDTH 500 0
DWIDTH 8 0
BBX 8 16 0 -4
BITMAP
00
00
C0
C0
C0
FC
C6
C6
C6
C6
C6
FC
00
00
00
00
ENDCHAR

STARTCHAR c
ENCODING 99
SWIDTH 500 0
DWIDTH 8 0
BBX 8 16 0 -4
BITMAP
00
00
00
00
00
7C
C6
C0
C0
C0
C6
7C
00
00
00
00
ENDCHAR

STARTCHAR d
ENCODING 100
SWIDTH 500 0
DWIDTH 8 0
BBX 8 16 0 -4
BITMAP
00
00
06
06
06
7E
C6
C6
C6
C6
C6
7E
00
00
00
00
ENDCHAR

STARTCHAR e
ENCODING 101
SWIDTH 500 0
DWIDTH 8 0
BBX 8 16 0 -4
BITMAP
00
00
00
00
00
7C
C6
C6
FE
C0
C0
7C
00
00
00
00
ENDCHAR

STARTCHAR f
ENCODING 102
SWIDTH 500 0
DWIDTH 8 0
BBX 8 16 0 -4
BITMAP
00
00
1E
30
30
FC
30
30
30
30
30
30
00
00
00
00
ENDCHAR

STARTCHAR g
ENCODING 103
SWIDTH 500 0
DWIDTH 8 0
BBX 8 16 0 -4
BITMAP
00
00
00
00
00
7E
C6
C6
C6
C6
C6
7E
06
06
7C
00
ENDCHAR

STARTCHAR h
ENCODING 104
SWIDTH 500 0
DWIDTH 8 0
BBX 8 16 0 -4
BITMAP
00
00
C0
C0
C0
FC
C6
C6
C6
C6
C6
C6
00
00
00
00
ENDCHAR

STARTCHAR i
ENCODING 105
SWIDTH 500 0
DWIDTH 8 0
BBX 8 16 0 -4
BITMAP
00
00
18
18
00
38
18
18
18
18
18
3C
00
00
00
00
ENDCHAR

STARTCHAR j
ENCODING 106
SWIDTH 500 0
DWIDTH 8 0
BBX 8 16 0 -4
BITMAP
00
00
06
06
00
0E
06
06
06
06
06
06
66
66
3C
00
ENDCHAR

STARTCHAR k
ENCODING 107
SWIDTH 500 0
DWIDTH 8 0
BBX 8 16 0 -4
BITMAP
00
00
C0
C0
C0
C6
CC
D8
F0
D8
CC
C6
00
00
00
00
ENDCHAR

STARTCHAR l
ENCODING 108
SWIDTH 500 0
DWIDTH 8 0
BBX 8 16 0 -4
BITMAP
00
00
38
18
18
18
18
18
18
18
18
3C
00
00
00
00
ENDCHAR

STARTCHAR m
ENCODING 109
SWIDTH 500 0
DWIDTH 8 0
BBX 8 16 0 -4
BITMAP
00
00
00
00
00
FC
D6
D6
D6
D6
D6
D6
00
00
00
00
ENDCHAR

STARTCHAR n
ENCODING 110
SWIDTH 500 0
DWIDTH 8 0
BBX 8 16 0 -4
BITMAP
00
00
00
00
00
FC
C6
C6
C6
C6
C6
C6
00
00
00
00
ENDCHAR

STARTCHAR o
ENCODING 111
SWIDTH 500 0
DWIDTH 8 0
BBX 8 16 0 -4
BITMAP
00
00
00
00
00
7C
C6
C6
C6
C6
C6
7C
00
00
00
00
ENDCHAR

STARTCHAR p
ENCODING 112
SWIDTH 500 0
DWIDTH 8 0
BBX 8 16 0 -4
BITMAP
00
00
00
00
00
FC
C6
C6
C6
C6
C6
FC
C0
C0
C0
00
ENDCHAR

STARTCHAR q
ENCODING 113
SWIDTH 500 0
DWIDTH 8 0
BBX 8 16 0 -4
BITMAP
00
00
00
00
00
7E
C6
C6
C6
C6
C6
7E
06
06
06
00
ENDCHAR

STARTCHAR r
ENCODING 114
SWIDTH 500 0
DWIDTH 8 0
BBX 8 16 0 -4
BITMAP
00
00
00
00
00
DE
F0
E0
C0
C0
C0
C0
00
00
00
00
ENDCHAR

STARTCHAR s
ENCODING 115
SWIDTH 500 0
DWIDTH 8 0
BBX 8 16 0 -4
BITMAP
00
00
00
00
00
7E
C0
C0
7C
06
06
FC
00
00
00
00
ENDCHAR

STARTCHAR t
ENCODING 116
SWIDTH 500 0
DWIDTH 8 0
BBX 8 16 0 -4
BITMAP
00
00
30
30
30
FC
30
30
30
30
30
1E
00
00
00
00
ENDCHAR

STARTCHAR u
ENCODING 117
SWIDTH 500 0
DWIDTH 8 0
BBX 8 16 0 -4
BITMAP
00
00
00
00
00
C6
C6
C6
C6
C6
C6
7E
00
00
00
00
ENDCHAR

STARTCHAR v
ENCODING 118
SWIDTH 500 0
DWIDTH 8 0
BBX 8 16 0 -4
BITMAP
00
00
00
00
00
C6
C6
C6
6C
6C
38
38
00
00
00
00
ENDCHAR

STARTCHAR w
ENCODING 119
SWIDTH 500 0
DWIDTH 8 0
BBX 8 16 0 -4
BITMAP
00
00
00
00
00
C6
C6
D6
D6
D6
D6
7C
00
00
00
00
ENDCHAR

STARTCHAR x
ENCODING 120
SWIDTH 500 0
DWIDTH 8 0
BBX 8 16 0 -4
BITMAP
00
00
00
00
00
C6
C6
6C
38
6C
C6
C6
00
00
00
00
ENDCHAR

STARTCHAR y
ENCODING 121
SWIDTH 500 0
DWIDTH 8 0
BBX 8 16 0 -4
BITMAP
00
00
00
00
00
C6
C6
C6
C6
C6
C6
7E
06
06
7C
00
ENDCHAR

STARTCHAR z
ENCODING 122
SWIDTH 500 0
DWIDTH 8 0
BBX 8 16 0 -4
BITMAP
00
00
00
00
00
FE
0C
18
30
60
C0
FE
00
00
00
00
ENDCHAR

STARTCHAR braceleft
ENCODING 123
SWIDTH 500 0
DWIDTH 8 0
BBX 8 16 0 -4
BITMAP
00
00
1C
30
30
30
60
30
30
30
30
1C
00
00
00
00
ENDCHAR

STARTCHAR bar
ENCODING 124
SWIDTH 500 0
DWIDTH 8 0
BBX 8 16 0 -4
BITMAP
00
00
18
18
18
18
18
18
18
18
18
18
00
00
00
00
ENDCHAR

STARTCHAR braceright
ENCODING 125
SWIDTH 500 0
DWIDTH 8 0
BBX 8 16 0 -4
BITMAP
00
00
70
18
18
18
0C
18
18
18
18
70
00
00
00
00
ENDCHAR

STARTCHAR asciitilde
ENCODING 126
SWIDTH 500 0
DWIDTH 8 0
BBX 8 16 0 -4
BITMAP
00
00
00
00
00
00
73
DB
CE
00
00
00
00
00
00
00
ENDCHAR

STARTCHAR space
ENCODING 160
SWIDTH 500 0
DWIDTH 8 0
BBX 8 16 0 -4
BITMAP
00
00
00
00
00
00
00
00
00
00
00
00
00
00
00
00
ENDCHAR

STARTCHAR exclamdown
ENCODING 161
SWIDTH 500 0
DWIDTH 8 0
BBX 8 16 0 -4
BITMAP
00
00
18
18
00
18
18
18
18
18
18
18
00
00
00
00
ENDCHAR

STARTCHAR cent
ENCODING 162
SWIDTH 500 0
DWIDTH 8 0
BBX 8 16 0 -4
BITMAP
00
00
00
10
10
7C
D6
D0
D0
D0
D6
7C
10
10
00
00
ENDCHAR

STARTCHAR sterling
ENCODING 163
SWIDTH 500 0
DWIDTH 8 0
BBX 8 16 0 -4
BITMAP
00
00
38
6C
60
60
F8
60
60
60
66
FE
00
00
00
00
ENDCHAR

STARTCHAR Euro
ENCODING 164
SWIDTH 500 0
DWIDTH 8 0
BBX 8 16 0 -4
BITMAP
00
00
00
1E
33
60
FC
60
FC
60
33
1E
00
00
00
00
ENDCHAR

STARTCHAR yen
ENCODING 165
SWIDTH 500 0
DWIDTH 8 0
BBX 8 16 0 -4
BITMAP
00
00
C3
C3
66
3C
18
7E
18
7E
18
18
00
00
00
00
ENDCHAR

STARTCHAR Scaron
ENCODING 166
SWIDTH 500 0
DWIDTH 8 0
BBX 8 16 0 -4
BITMAP
6C
38
00
7C
C6
C0
C0
7C
06
06
C6
7C
00
00
00
00
ENDCHAR

STARTCHAR section
ENCODING 167
SWIDTH 500 0
DWIDTH 8 0
BBX 8 16 0 -4
BITMAP
00
3C
66
60
38
6C
66
66
36
1C
06
66
3C
00
00
00
ENDCHAR

STARTCHAR scaron
ENCODING 168
SWIDTH 500 0
DWIDTH 8 0
BBX 8 16 0 -4
BITMAP
00
00
6C
38
00
7E
C0
C0
7C
06
06
FC
00
00
00
00
ENDCHAR

STARTCHAR copyright
ENCODING 169
SWIDTH 500 0
DWIDTH 8 0
BBX 8 16 0 -4
BITMAP
00
00
00
7E
81
99
A5
A1
A5
99
81
7E
00
00
00
00
ENDCHAR

STARTCHAR ordfeminine
ENCODING 170
SWIDTH 500 0
DWIDTH 8 0
BBX 8 16 0 -4
BITMAP
00
3C
06
3E
66
3E
00
7E
00
00
00
00
00
00
00
00
ENDCHAR

STARTCHAR guillemotleft
ENCODING 171
SWIDTH 500 0
DWIDTH 8 0
BBX 8 16 0 -4
BITMAP
00
00
00
00
00
1B
36
6C
D8
6C
36
1B
00
00
00
00
ENDCHAR

STARTCHAR logicalnot
ENCODING 172
SWIDTH 500 0
DWIDTH 8 0
BBX 8 16 0 -4
BITMAP
00
00
00
00
00
FE
06
06
06
00
00
00
00
00
00
00
ENDCHAR

STARTCHAR hyphen
ENCODING 173
SWIDTH 500 0
DWIDTH 8 0
BBX 8 16 0 -4
BITMAP
00
00
00
00
00
00
00
7C
00
00
00
00
00
00
00
00
ENDCHAR

STARTCHAR registered
ENCODING 174
SWIDTH 500 0
DWIDTH 8 0
BBX 8 16 0 -4
BITMAP
00
00
00
7E
81
B9
A5
B9
A9
A5
81
7E
00
00
00
00
ENDCHAR

STARTCHAR macron
ENCODING 175
SWIDTH 500 0
DWIDTH 8 0
BBX 8 16 0 -4
BITMAP
7C
00
00
00
00
00
00
00
00
00
00
00
00
00
00
00
ENDCHAR

STARTCHAR degree
ENCODING 176
SWIDTH 500 0
DWIDTH 8 0
BBX 8 16 0 -4
BITMAP
00
38
6C
6C
38
00
00
00
00
00
00
00
00
00
00
00
ENDCHAR

STARTCHAR plusminus
ENCODING 177
SWIDTH 500 0
DWIDTH 8 0
BBX 8 16 0 -4
BITMAP
00
00
00
00
00
18
18
7E
18
18
00
7E
00
00
00
00
ENDCHAR

STARTCHAR twosuperior
ENCODING 178
SWIDTH 500 0
DWIDTH 8 0
BBX 8 16 0 -4
BITMAP
00
38
6C
0C
18
30
7C
00
00
00
00
00
00
00
00
00
ENDCHAR

STARTCHAR threesuperior
ENCODING 179
SWIDTH 500 0
DWIDTH 8 0
BBX 8 16 0 -4
BITMAP
00
78
0C
38
0C
0C
78
00
00
00
00
00
00
00
00
00
ENDCHAR

STARTCHAR Zcaron
ENCODING 180
SWIDTH 500 0
DWIDTH 8 0
BBX 8 16 0 -4
BITMAP
6C
38
00
FE
06
0C
18
30
60
C0
C0
FE
00
00
00
00
ENDCHAR

STARTCHAR mu
ENCODING 181
SWIDTH 500 0
DWIDTH 8 0
BBX 8 16 0 -4
BITMAP
00
00
00
00
00
C6
C6
C6
C6
C6
CE
F6
C0
C0
C0
00
ENDCHAR

STARTCHAR paragraph
ENCODING 182
SWIDTH 500 0
DWIDTH 8 0
BBX 8 16 0 -4
BITMAP
00
00
7E
D6
D6
D6
D6
76
16
16
16
16
00
00
00
00
ENDCHAR

STARTCHAR periodcentered
ENCODING 183
SWIDTH 500 0
DWIDTH 8 0
BBX 8 16 0 -4
BITMAP
00
00
00
00
00
00
00
18
18
00
00
00
00
00
00
00
ENDCHAR

STARTCHAR zcaron
ENCODING 184
SWIDTH 500 0
DWIDTH 8 0
BBX 8 16 0 -4
BITMAP
00
00
6C
38
00
FE
0C
18
30
60
C0
FE
00
00
00
00
ENDCHAR

STARTCHAR onesuperior
ENCODING 185
SWIDTH 500 0
DWIDTH 8 0
BBX 8 16 0 -4
BITMAP
00
18
38
18
18
18
3C
00
00
00
00
00
00
00
00
00
ENDCHAR

STARTCHAR ordmasculine
ENCODING 186
SWIDTH 500 0
DWIDTH 8 0
BBX 8 16 0 -4
BITMAP
00
3C
66
66
66
3C
00
7E
00
00
00
00
00
00
00
00
ENDCHAR

STARTCHAR guillemotright
ENCODING 187
SWIDTH 500 0
DWIDTH 8 0
BBX 8 16 0 -4
BITMAP
00
00
00
00
00
D8
6C
36
1B
36
6C
D8
00
00
00
00
ENDCHAR

STARTCHAR OE
ENCODING 188
SWIDTH 500 0
DWIDTH 8 0
BBX 8 16 0 -4
BITMAP
00
00
7E
D8
D8
D8
DE
D8
D8
D8
D8
7E
00
00
00
00
ENDCHAR

STARTCHAR oe
ENCODING 189
SWIDTH 500 0
DWIDTH 8 0
BBX 8 16 0 -4
BITMAP
00
00
00
00
00
7C
D6
D6
DE
D0
D0
7C
00
00
00
00
ENDCHAR

STARTCHAR Ydieresis
ENCODING 190
SWIDTH 500 0
DWIDTH 8 0
BBX 8 16 0 -4
BITMAP
66
66
00
C3
C3
66
66
3C
18
18
18
18
00
00
00
00
ENDCHAR

STARTCHAR questiondown
ENCODING 191
SWIDTH 500 0
DWIDTH 8 0
BBX 8 16 0 -4
BITMAP
00
00
30
30
00
30
30
60
C6
C6
C6
7C
00
00
00
00
ENDCHAR

STARTCHAR Agrave
ENCODING 192
SWIDTH 500 0
DWIDTH 8 0
BBX 8 16 0 -4
BITMAP
30
18
00
7C
C6
C6
C6
FE
C6
C6
C6
C6
00
00
00
00
ENDCHAR

STARTCHAR Aacute
ENCODING 193
SWIDTH 500 0
DWIDTH 8 0
BBX 8 16 0 -4
BITMAP
18
30
00
7C
C6
C6
C6
FE
C6
C6
C6
C6
00
00
00
00
ENDCHAR

STARTCHAR Acircumflex
ENCODING 194
SWIDTH 500 0
DWIDTH 8 0
BBX 8 16 0 -4
BITMAP
38
6C
00
7C
C6
C6
C6
FE
C6
C6
C6
C6
00
00
00
00
ENDCHAR

STARTCHAR Atilde
ENCODING 195
SWIDTH 500 0
DWIDTH 8 0
BBX 8 16 0 -4
BITMAP
76
DC
00
7C
C6
C6
C6
FE
C6
C6
C6
C6
00
00
00
00
ENDCHAR

STARTCHAR Adieresis
ENCODING 196
SWIDTH 500 0
DWIDTH 8 0
BBX 8 16 0 -4
BITMAP
6C
6C
00
7C
C6
C6
C6
FE
C6
C6
C6
C6
00
00
00
00
ENDCHAR

STARTCHAR Aring
ENCODING 197
SWIDTH 500 0
DWIDTH 8 0
BBX 8 16 0 -4
BITMAP
38
6C
38
7C
C6
C6
C6
FE
C6
C6
C6
C6
00
00
00
00
ENDCHAR

STARTCHAR AE
ENCODING 198
SWIDTH 500 0
DWIDTH 8 0
BBX 8 16 0 -4
BITMAP
00
00
7E
D8
D8
D8
FE
D8
D8
D8
D8
DE
00
00
00
00
ENDCHAR

STARTCHAR Ccedilla
ENCODING 199
SWIDTH 500 0
DWIDTH 8 0
BBX 8 16 0 -4
BITMAP
00
00
7C
C6
C6
C0
C0
C0
C0
C6
C6
7C
30
30
60
00
ENDCHAR

STARTCHAR Egrave
ENCODING 200
SWIDTH 500 0
DWIDTH 8 0
BBX 8 16 0 -4
BITMAP
30
18
00
FE
C0
C0
C0
F8
C0
C0
C0
FE
00
00
00
00
ENDCHAR

STARTCHAR Eacute
ENCODING 201
SWIDTH 500 0
DWIDTH 8 0
BBX 8 16 0 -4
BITMAP
18
30
00
FE
C0
C0
C0
F8
C0
C0
C0
FE
00
00
00
00
ENDCHAR

STARTCHAR Ecircumflex
ENCODING 202
SWIDTH 500 0
DWIDTH 8 0
BBX 8 16 0 -4
BITMAP
38
6C
00
FE
C0
C0
C0
F8
C0
C0
C0
FE
00
00
00
00
ENDCHAR

STARTCHAR Edieresis
ENCODING 203
SWIDTH 500 0
DWIDTH 8 0
BBX 8 16 0 -4
BITMAP
6C
6C
00
FE
C0
C0
C0
F8
C0
C0
C0
FE
00
00
00
00
ENDCHAR

STARTCHAR Igrave
ENCODING 204
SWIDTH 500 0
DWIDTH 8 0
BBX 8 16 0 -4
BITMAP
30
18
00
3C
18
18
18
18
18
18
18
3C
00
00
00
00
ENDCHAR

STARTCHAR Iacute
ENCODING 205
SWIDTH 500 0
DWIDTH 8 0
BBX 8 16 0 -4
BITMAP
0C
18
00
3C
18
18
18
18
18
18
18
3C
00
00
00
00
ENDCHAR

STARTCHAR Icircumflex
ENCODING 206
SWIDTH 500 0
DWIDTH 8 0
BBX 8 16 0 -4
BITMAP
38
6C
00
3C
18
18
18
18
18
18
18
3C
00
00
00
00
ENDCHAR

STARTCHAR Idieresis
ENCODING 207
SWIDTH 500 0
DWIDTH 8 0
BBX 8 16 0 -4
BITMAP
66
66
00
3C
18
18
18
18
18
18
18
3C
00
00
00
00
ENDCHAR

STARTCHAR Eth
ENCODING 208
SWIDTH 500 0
DWIDTH 8 0
BBX 8 16 0 -4
BITMAP
00
00
78
6C
66
66
F6
66
66
66
6C
78
00
00
00
00
ENDCHAR

STARTCHAR Ntilde
ENCODING 209
SWIDTH 500 0
DWIDTH 8 0
BBX 8 16 0 -4
BITMAP
76
DC
00
C6
C6
E6
F6
DE
CE
C6
C6
C6
00
00
00
00
ENDCHAR

STARTCHAR Ograve
ENCODING 210
SWIDTH 500 0
DWIDTH 8 0
BBX 8 16 0 -4
BITMAP
30
18
00
7C
C6
C6
C6
C6
C6
C6
C6
7C
00
00
00
00
ENDCHAR

STARTCHAR Oacute
ENCODING 211
SWIDTH 500 0
DWIDTH 8 0
BBX 8 16 0 -4
BITMAP
18
30
00
7C
C6
C6
C6
C6
C6
C6
C6
7C
00
00
00
00
ENDCHAR

STARTCHAR Ocircumflex
ENCODING 212
SWIDTH 500 0
DWIDTH 8 0
BBX 8 16 0 -4
BITMAP
38
6C
00
7C
C6
C6
C6
C6
C6
C6
C6
7C
00
00
00
00
ENDCHAR

STARTCHAR Otilde
ENCODING 213
SWIDTH 500 0
DWIDTH 8 0
BBX 8 16 0 -4
BITMAP
76
DC
00
7C
C6
C6
C6
C6
C6
C6
C6
7C
00
00
00
00
ENDCHAR

STARTCHAR Odieresis
ENCODING 214
SWIDTH 500 0
DWIDTH 8 0
BBX 8 16 0 -4
BITMAP
6C
6C
00
7C
C6
C6
C6
C6
C6
C6
C6
7C
00
00
00
00
ENDCHAR

STARTCHAR multiply
ENCODING 215
SWIDTH 500 0
DWIDTH 8 0
BBX 8 16 0 -4
BITMAP
00
00
00
00
00
C6
6C
38
38
6C
C6
00
00
00
00
00
ENDCHAR

STARTCHAR Oslash
ENCODING 216
SWIDTH 500 0
DWIDTH 8 0
BBX 8 16 0 -4
BITMAP
00
00
7C
C7
C6
CE
DE
F6
E6
C6
C6
7C
00
00
00
00
ENDCHAR

STARTCHAR Ugrave
ENCODING 217
SWIDTH 500 0
DWIDTH 8 0
BBX 8 16 0 -4
BITMAP
30
18
C6
C6
C6
C6
C6
C6
C6
C6
C6
7C
00
00
00
00
ENDCHAR

STARTCHAR Uacute
ENCODING 218
SWIDTH 500 0
DWIDTH 8 0
BBX 8 16 0 -4
BITMAP
18
30
C6
C6
C6
C6
C6
C6
C6
C6
C6
7C
00
00
00
00
ENDCHAR

STARTCHAR Ucircumflex
ENCODING 219
SWIDTH 500 0
DWIDTH 8 0
BBX 8 16 0 -4
BITMAP
38
6C
00
C6
C6
C6
C6
C6
C6
C6
C6
7C
00
00
00
00
ENDCHAR

STARTCHAR Udieresis
ENCODING 220
SWIDTH 500 0
DWIDTH 8 0
BBX 8 16 0 -4
BITMAP
6C
6C
00
C6
C6
C6
C6
C6
C6
C6
C6
7C
00
00
00
00
ENDCHAR

STARTCHAR Yacute
ENCODING 221
SWIDTH 500 0
DWIDTH 8 0
BBX 8 16 0 -4
BITMAP
0C
18
C3
C3
66
66
3C
18
18
18
18
18
00
00
00
00
ENDCHAR

STARTCHAR Thorn
ENCODING 222
SWIDTH 500 0
DWIDTH 8 0
BBX 8 16 0 -4
BITMAP
00
00
C0
C0
FC
C6
C6
C6
C6
FC
C0
C0
00
00
00
00
ENDCHAR

STARTCHAR germandbls
ENCODING 223
SWIDTH 500 0
DWIDTH 8 0
BBX 8 16 0 -4
BITMAP
00
00
78
CC
CC
C8
FC
C6
C6
C6
E6
DC
00
00
00
00
ENDCHAR

STARTCHAR agrave
ENCODING 224
SWIDTH 500 0
DWIDTH 8 0
BBX 8 16 0 -4
BITMAP
00
00
30
18
00
7C
06
7E
C6
C6
C6
7E
00
00
00
00
ENDCHAR

STARTCHAR aacute
ENCODING 225
SWIDTH 500 0
DWIDTH 8 0
BBX 8 16 0 -4
BITMAP
00
00
18
30
00
7C
06
7E
C6
C6
C6
7E
00
00
00
00
ENDCHAR

STARTCHAR acircumflex
ENCODING 226
SWIDTH 500 0
DWIDTH 8 0
BBX 8 16 0 -4
BITMAP
00
00
38
6C
00
7C
06
7E
C6
C6
C6
7E
00
00
00
00
ENDCHAR

STARTCHAR atilde
ENCODING 227
SWIDTH 500 0
DWIDTH 8 0
BBX 8 16 0 -4
BITMAP
00
00
76
DC
00
7C
06
7E
C6
C6
C6
7E
00
00
00
00
ENDCHAR

STARTCHAR adieresis
ENCODING 228
SWIDTH 500 0
DWIDTH 8 0
BBX 8 16 0 -4
BITMAP
00
00
6C
6C
00
7C
06
7E
C6
C6
C6
7E
00
00
00
00
ENDCHAR

STARTCHAR aring
ENCODING 229
SWIDTH 500 0
DWIDTH 8 0
BBX 8 16 0 -4
BITMAP
00
00
38
6C
38
7C
06
7E
C6
C6
C6
7E
00
00
00
00
ENDCHAR

STARTCHAR ae
ENCODING 230
SWIDTH 500 0
DWIDTH 8 0
BBX 8 16 0 -4
BITMAP
00
00
00
00
00
6C
16
16
7E
D0
D0
6C
00
00
00
00
ENDCHAR

STARTCHAR ccedilla
ENCODING 231
SWIDTH 500 0
DWIDTH 8 0
BBX 8 16 0 -4
BITMAP
00
00
00
00
00
7C
C6
C0
C0
C0
C6
7C
30
30
60
00
ENDCHAR

STARTCHAR egrave
ENCODING 232
SWIDTH 500 0
DWIDTH 8 0
BBX 8 16 0 -4
BITMAP
00
00
30
18
00
7C
C6
C6
FE
C0
C0
7C
00
00
00
00
ENDCHAR

STARTCHAR eacute
ENCODING 233
SWIDTH 500 0
DWIDTH 8 0
BBX 8 16 0 -4
BITMAP
00
00
18
30
00
7C
C6
C6
FE
C0
C0
7C
00
00
00
00
ENDCHAR

STARTCHAR ecircumflex
ENCODING 234
SWIDTH 500 0
DWIDTH 8 0
BBX 8 16 0 -4
BITMAP
00
00
38
6C
00
7C
C6
C6
FE
C0
C0
7C
00
00
00
00
ENDCHAR

STARTCHAR edieresis
ENCODING 235
SWIDTH 500 0
DWIDTH 8 0
BBX 8 16 0 -4
BITMAP
00
00
6C
6C
00
7C
C6
C6
FE
C0
C0
7C
00
00
00
00
ENDCHAR

STARTCHAR igrave
ENCODING 236
SWIDTH 500 0
DWIDTH 8 0
BBX 8 16 0 -4
BITMAP
00
00
30
18
00
38
18
18
18
18
18
3C
00
00
00
00
ENDCHAR

STARTCHAR iacute
ENCODING 237
SWIDTH 500 0
DWIDTH 8 0
BBX 8 16 0 -4
BITMAP
00
00
0C
18
00
38
18
18
18
18
18
3C
00
00
00
00
ENDCHAR

STARTCHAR icircumflex
ENCODING 238
SWIDTH 500 0
DWIDTH 8 0
BBX 8 16 0 -4
BITMAP
00
00
38
6C
00
38
18
18
18
18
18
3C
00
00
00
00
ENDCHAR

STARTCHAR idieresis
ENCODING 239
SWIDTH 500 0
DWIDTH 8 0
BBX 8 16 0 -4
BITMAP
00
00
6C
6C
00
38
18
18
18
18
18
3C
00
00
00
00
ENDCHAR

STARTCHAR eth
ENCODING 240
SWIDTH 500 0
DWIDTH 8 0
BBX 8 16 0 -4
BITMAP
00
00
68
30
58
7C
C6
C6
C6
C6
C6
7C
00
00
00
00
ENDCHAR

STARTCHAR ntilde
ENCODING 241
SWIDTH 500 0
DWIDTH 8 0
BBX 8 16 0 -4
BITMAP
00
00
76
DC
00
FC
C6
C6
C6
C6
C6
C6
00
00
00
00
ENDCHAR

STARTCHAR ograve
ENCODING 242
SWIDTH 500 0
DWIDTH 8 0
BBX 8 16 0 -4
BITMAP
00
00
30
18
00
7C
C6
C6
C6
C6
C6
7C
00
00
00
00
ENDCHAR

STARTCHAR oacute
ENCODING 243
SWIDTH 500 0
DWIDTH 8 0
BBX 8 16 0 -4
BITMAP
00
00
18
30
00
7C
C6
C6
C6
C6
C6
7C
00
00
00
00
ENDCHAR

STARTCHAR ocircumflex
ENCODING 244
SWIDTH 500 0
DWIDTH 8 0
BBX 8 16 0 -4
BITMAP
00
00
38
6C
00
7C
C6
C6
C6
C6
C6
7C
00
00
00
00
ENDCHAR

STARTCHAR otilde
ENCODING 245
SWIDTH 500 0
DWIDTH 8 0
BBX 8 16 0 -4
BITMAP
00
00
76
DC
00
7C
C6
C6
C6
C6
C6
7C
00
00
00
00
ENDCHAR

STARTCHAR odieresis
ENCODING 246
SWIDTH 500 0
DWIDTH 8 0
BBX 8 16 0 -4
BITMAP
00
00
6C
6C
00
7C
C6
C6
C6
C6
C6
7C
00
00
00
00
ENDCHAR

STARTCHAR divide
ENCODING 247
SWIDTH 500 0
DWIDTH 8 0
BBX 8 16 0 -4
BITMAP
00
00
00
00
18
18
00
7E
00
18
18
00
00
00
00
00
ENDCHAR

STARTCHAR oslash
ENCODING 248
SWIDTH 500 0
DWIDTH 8 0
BBX 8 16 0 -4
BITMAP
00
00
00
00
00
3D
67
6E
7E
76
E6
BC
00
00
00
00
ENDCHAR

STARTCHAR ugrave
ENCODING 249
SWIDTH 500 0
DWIDTH 8 0
BBX 8 16 0 -4
BITMAP
00
00
30
18
00
C6
C6
C6
C6
C6
C6
7E
00
00
00
00
ENDCHAR

STARTCHAR uacute
ENCODING 250
SWIDTH 500 0
DWIDTH 8 0
BBX 8 16 0 -4
BITMAP
00
00
18
30
00
C6
C6
C6
C6
C6
C6
7E
00
00
00
00
ENDCHAR

STARTCHAR ucircumflex
ENCODING 251
SWIDTH 500 0
DWIDTH 8 0
BBX 8 16 0 -4
BITMAP
00
00
38
6C
00
C6
C6
C6
C6
C6
C6
7E
00
00
00
00
ENDCHAR

STARTCHAR udieresis
ENCODING 252
SWIDTH 500 0
DWIDTH 8 0
BBX 8 16 0 -4
BITMAP
00
00
6C
6C
00
C6
C6
C6
C6
C6
C6
7E
00
00
00
00
ENDCHAR

STARTCHAR yacute
ENCODING 253
SWIDTH 500 0
DWIDTH 8 0
BBX 8 16 0 -4
BITMAP
00
00
18
30
00
C6
C6
C6
C6
C6
C6
7E
06
06
7C
00
ENDCHAR

STARTCHAR thorn
ENCODING 254
SWIDTH 500 0
DWIDTH 8 0
BBX 8 16 0 -4
BITMAP
00
00
C0
C0
C0
FC
C6
C6
C6
C6
C6
FC
C0
C0
C0
00
ENDCHAR

STARTCHAR ydieresis
ENCODING 255
SWIDTH 500 0
DWIDTH 8 0
BBX 8 16 0 -4
BITMAP
00
00
6C
6C
00
C6
C6
C6
C6
C6
C6
7E
06
06
7C
00
ENDCHAR

ENDFONT
