STARTFONT 2.1
FONT -xos4-Terminus-Bold-R-Normal--24-240-72-72-C-120-ISO8859-15
SIZE 24 72 72
FONTBOUNDINGBOX 12 24 0 -5

STARTPROPERTIES 23
FAMILY_NAME "Terminus"
FOUNDRY "xos4"
SETWIDTH_NAME "Normal"
ADD_STYLE_NAME ""
COPYRIGHT "Copyright (C) 2015 Dimitar Toshkov Zhekov"
NOTICE "Licensed under the SIL Open Font License, Version 1.1"
WEIGHT_NAME "Bold"
SLANT "R"
PIXEL_SIZE 24
POINT_SIZE 240
RESOLUTION_X 72
RESOLUTION_Y 72
SPACING "C"
AVERAGE_WIDTH 120
CHARSET_REGISTRY "ISO8859"
CHARSET_ENCODING "15"
MIN_SPACE 12
WEIGHT 10
X_HEIGHT 19
QUAD_WIDTH 12
DEFAULT_CHAR 63
FONT_DESCENT 5
FONT_ASCENT 19
ENDPROPERTIES

CHARS 219

STARTCHAR uni0000
ENCODING 0
SWIDTH 500 0
DWIDTH 12 0
BBX 12 24 0 -5
BITMAP
0000
0000
0000
0000
79E0
6060
6060
6060
0000
0000
6060
6060
6060
0000
0000
6060
6060
6060
79E0
0000
0000
0000
0000
0000
ENDCHAR

STARTCHAR uni0001
ENCODING 1
SWIDTH 500 0
DWIDTH 12 0
BBX 12 24 0 -5
BITMAP
0000
0000
0000
0000
0000
0000
0600
0F00
1F80
3FC0
7FE0
FFF0
FFF0
7FE0
3FC0
1F80
0F00
0600
0000
0000
0000
0000
0000
0000
ENDCHAR

STARTCHAR uni0002
ENCODING 2
SWIDTH 500 0
DWIDTH 12 0
BBX 12 24 0 -5
BITMAP
AAA0
5550
AAA0
5550
AAA0
5550
AAA0
5550
AAA0
5550
AAA0
5550
AAA0
5550
AAA0
5550
AAA0
5550
AAA0
5550
AAA0
5550
AAA0
5550
ENDCHAR

STARTCHAR uni0003
ENCODING 3
SWIDTH 500 0
DWIDTH 12 0
BBX 12 24 0 -5
BITMAP
0000
0000
0000
6600
6600
6600
7E00
6600
6600
6600
0000
0000
07E0
0180
0180
0180
0180
0180
0180
0000
0000
0000
0000
0000
ENDCHAR

STARTCHAR uni0004
ENCODING 4
SWIDTH 500 0
DWIDTH 12 0
BBX 12 24 0 -5
BITMAP
0000
0000
0000
7E00
6000
6000
7800
6000
6000
6000
0000
0000
07E0
0600
0600
0780
0600
0600
0600
0000
0000
0000
0000
0000
ENDCHAR

STARTCHAR uni0005
ENCODING 5
SWIDTH 500 0
DWIDTH 12 0
BBX 12 24 0 -5
BITMAP
0000
0000
0000
3C00
6600
6000
6000
6000
6600
3C00
0000
0000
07C0
0660
0660
07C0
0780
06C0
0660
0000
0000
0000
0000
0000
ENDCHAR

STARTCHAR uni0006
ENCODING 6
SWIDTH 500 0
DWIDTH 12 0
BBX 12 24 0 -5
BITMAP
0000
0000
0000
6000
6000
6000
6000
6000
6000
7E00
0000
0000
07E0
0600
0600
0780
0600
0600
0600
0000
0000
0000
0000
0000
ENDCHAR

STARTCHAR uni0007
ENCODING 7
SWIDTH 500 0
DWIDTH 12 0
BBX 12 24 0 -5
BITMAP
0000
0000
1F00
3180
3180
3180
3180
1F00
0000
0000
0000
0000
0000
0000
0000
0000
0000
0000
0000
0000
0000
0000
0000
0000
ENDCHAR

STARTCHAR uni0008
ENCODING 8
SWIDTH 500 0
DWIDTH 12 0
BBX 12 24 0 -5
BITMAP
0000
0000
0000
0000
0000
0000
0000
0600
0600
0600
0600
7FE0
0600
0600
0600
0600
0000
0000
7FE0
0000
0000
0000
0000
0000
ENDCHAR

STARTCHAR uni0009
ENCODING 9
SWIDTH 500 0
DWIDTH 12 0
BBX 12 24 0 -5
BITMAP
0000
0000
0000
6600
6600
7600
7E00
6E00
6600
6600
0000
0000
0600
0600
0600
0600
0600
0600
07E0
0000
0000
0000
0000
0000
ENDCHAR

STARTCHAR uni000A
ENCODING 10
SWIDTH 500 0
DWIDTH 12 0
BBX 12 24 0 -5
BITMAP
0000
0000
0000
6600
6600
6600
6600
6600
3C00
1800
0000
0000
07E0
0180
0180
0180
0180
0180
0180
0000
0000
0000
0000
0000
ENDCHAR

STARTCHAR uni000B
ENCODING 11
SWIDTH 500 0
DWIDTH 12 0
BBX 12 24 0 -5
BITMAP
0600
0600
0600
0600
0600
0600
0600
0600
0600
0600
0600
FE00
FE00
0000
0000
0000
0000
0000
0000
0000
0000
0000
0000
0000
ENDCHAR

STARTCHAR uni000C
ENCODING 12
SWIDTH 500 0
DWIDTH 12 0
BBX 12 24 0 -5
BITMAP
0000
0000
0000
0000
0000
0000
0000
0000
0000
0000
0000
FE00
FE00
0600
0600
0600
0600
0600
0600
0600
0600
0600
0600
0600
ENDCHAR

STARTCHAR uni000D
ENCODING 13
SWIDTH 500 0
DWIDTH 12 0
BBX 12 24 0 -5
BITMAP
0000
0000
0000
0000
0000
0000
0000
0000
0000
0000
0000
07F0
07F0
0600
0600
0600
0600
0600
0600
0600
0600
0600
0600
0600
ENDCHAR

STARTCHAR uni000E
ENCODING 14
SWIDTH 500 0
DWIDTH 12 0
BBX 12 24 0 -5
BITMAP
0600
0600
0600
0600
0600
0600
0600
0600
0600
0600
0600
07F0
07F0
0000
0000
0000
0000
0000
0000
0000
0000
0000
0000
0000
ENDCHAR

STARTCHAR uni000F
ENCODING 15
SWIDTH 500 0
DWIDTH 12 0
BBX 12 24 0 -5
BITMAP
0600
0600
0600
0600
0600
0600
0600
0600
0600
0600
0600
FFF0
FFF0
0600
0600
0600
0600
0600
0600
0600
0600
0600
0600
0600
ENDCHAR

STARTCHAR uni0012
ENCODING 18
SWIDTH 500 0
DWIDTH 12 0
BBX 12 24 0 -5
BITMAP
0000
0000
0000
0000
0000
0000
0000
0000
0000
0000
0000
FFF0
FFF0
0000
0000
0000
0000
0000
0000
0000
0000
0000
0000
0000
ENDCHAR

STARTCHAR uni0015
ENCODING 21
SWIDTH 500 0
DWIDTH 12 0
BBX 12 24 0 -5
BITMAP
0600
0600
0600
0600
0600
0600
0600
0600
0600
0600
0600
07F0
07F0
0600
0600
0600
0600
0600
0600
0600
0600
0600
0600
0600
ENDCHAR

STARTCHAR uni0016
ENCODING 22
SWIDTH 500 0
DWIDTH 12 0
BBX 12 24 0 -5
BITMAP
0600
0600
0600
0600
0600
0600
0600
0600
0600
0600
0600
FE00
FE00
0600
0600
0600
0600
0600
0600
0600
0600
0600
0600
0600
ENDCHAR

STARTCHAR uni0017
ENCODING 23
SWIDTH 500 0
DWIDTH 12 0
BBX 12 24 0 -5
BITMAP
0600
0600
0600
0600
0600
0600
0600
0600
0600
0600
0600
FFF0
FFF0
0000
0000
0000
0000
0000
0000
0000
0000
0000
0000
0000
ENDCHAR

STARTCHAR uni0018
ENCODING 24
SWIDTH 500 0
DWIDTH 12 0
BBX 12 24 0 -5
BITMAP
0000
0000
0000
0000
0000
0000
0000
0000
0000
0000
0000
FFF0
FFF0
0600
0600
0600
0600
0600
0600
0600
0600
0600
0600
0600
ENDCHAR

STARTCHAR uni0019
ENCODING 25
SWIDTH 500 0
DWIDTH 12 0
BBX 12 24 0 -5
BITMAP
0600
0600
0600
0600
0600
0600
0600
0600
0600
0600
0600
0600
0600
0600
0600
0600
0600
0600
0600
0600
0600
0600
0600
0600
ENDCHAR

STARTCHAR uni001A
ENCODING 26
SWIDTH 500 0
DWIDTH 12 0
BBX 12 24 0 -5
BITMAP
0000
0000
0000
0000
00C0
0180
0300
0600
0C00
1800
3000
1800
0C00
0600
0300
0180
00C0
0000
7FE0
0000
0000
0000
0000
0000
ENDCHAR

STARTCHAR uni001B
ENCODING 27
SWIDTH 500 0
DWIDTH 12 0
BBX 12 24 0 -5
BITMAP
0000
0000
0000
0000
3000
1800
0C00
0600
0300
0180
00C0
0180
0300
0600
0C00
1800
3000
0000
7FE0
0000
0000
0000
0000
0000
ENDCHAR

STARTCHAR uni001C
ENCODING 28
SWIDTH 500 0
DWIDTH 12 0
BBX 12 24 0 -5
BITMAP
0000
0000
0000
0000
0000
0000
0000
0000
7FE0
6060
6060
6060
6060
6060
6060
6060
6060
6060
6060
0000
0000
0000
0000
0000
ENDCHAR

STARTCHAR uni001D
ENCODING 29
SWIDTH 500 0
DWIDTH 12 0
BBX 12 24 0 -5
BITMAP
0000
0000
0000
0000
0000
0000
0000
0060
7FE0
0180
0300
0600
0C00
1800
7FE0
6000
0000
0000
0000
0000
0000
0000
0000
0000
ENDCHAR

STARTCHAR uni001E
ENCODING 30
SWIDTH 500 0
DWIDTH 12 0
BBX 12 24 0 -5
BITMAP
0000
0000
0000
0000
0F00
1980
30C0
3000
3000
3000
3000
7F00
3000
3000
3000
3000
3060
3060
7FE0
0000
0000
0000
0000
0000
ENDCHAR

STARTCHAR uni001F
ENCODING 31
SWIDTH 500 0
DWIDTH 12 0
BBX 12 24 0 -5
BITMAP
0000
0000
0000
0000
0000
0000
0000
0000
0000
0000
0600
0600
0600
0000
0000
0000
0000
0000
0000
0000
0000
0000
0000
0000
ENDCHAR

STARTCHAR space
ENCODING 32
SWIDTH 500 0
DWIDTH 12 0
BBX 12 24 0 -5
BITMAP
0000
0000
0000
0000
0000
0000
0000
0000
0000
0000
0000
0000
0000
0000
0000
0000
0000
0000
0000
0000
0000
0000
0000
0000
ENDCHAR

STARTCHAR exclam
ENCODING 33
SWIDTH 500 0
DWIDTH 12 0
BBX 12 24 0 -5
BITMAP
0000
0000
0000
0000
0600
0600
0600
0600
0600
0600
0600
0600
0600
0600
0000
0000
0600
0600
0600
0000
0000
0000
0000
0000
ENDCHAR

STARTCHAR quotedbl
ENCODING 34
SWIDTH 500 0
DWIDTH 12 0
BBX 12 24 0 -5
BITMAP
0000
0000
1980
1980
1980
1980
1980
0000
0000
0000
0000
0000
0000
0000
0000
0000
0000
0000
0000
0000
0000
0000
0000
0000
ENDCHAR

STARTCHAR numbersign
ENCODING 35
SWIDTH 500 0
DWIDTH 12 0
BBX 12 24 0 -5
BITMAP
0000
0000
0000
0000
1980
1980
1980
1980
7FE0
1980
1980
1980
1980
1980
7FE0
1980
1980
1980
1980
0000
0000
0000
0000
0000
ENDCHAR

STARTCHAR dollar
ENCODING 36
SWIDTH 500 0
DWIDTH 12 0
BBX 12 24 0 -5
BITMAP
0000
0000
0000
0600
0600
1F80
36C0
6660
6600
6600
3600
1F80
06C0
0660
0660
6660
36C0
1F80
0600
0600
0000
0000
0000
0000
ENDCHAR

STARTCHAR percent
ENCODING 37
SWIDTH 500 0
DWIDTH 12 0
BBX 12 24 0 -5
BITMAP
0000
0000
0000
0000
0000
38C0
6CC0
6D80
3980
0300
0300
0600
0600
0C00
0C00
19C0
1B60
3360
31C0
0000
0000
0000
0000
0000
ENDCHAR

STARTCHAR ampersand
ENCODING 38
SWIDTH 500 0
DWIDTH 12 0
BBX 12 24 0 -5
BITMAP
0000
0000
0000
0000
0E00
1B00
3180
3180
3180
1B00
0E00
1E60
3360
61C0
60C0
60C0
61C0
3360
1E60
0000
0000
0000
0000
0000
ENDCHAR

STARTCHAR quotesingle
ENCODING 39
SWIDTH 500 0
DWIDTH 12 0
BBX 12 24 0 -5
BITMAP
0000
0000
0600
0600
0600
0600
0600
0000
0000
0000
0000
0000
0000
0000
0000
0000
0000
0000
0000
0000
0000
0000
0000
0000
ENDCHAR

STARTCHAR parenleft
ENCODING 40
SWIDTH 500 0
DWIDTH 12 0
BBX 12 24 0 -5
BITMAP
0000
0000
0000
0000
0300
0600
0C00
0C00
1800
1800
1800
1800
1800
1800
1800
0C00
0C00
0600
0300
0000
0000
0000
0000
0000
ENDCHAR

STARTCHAR parenright
ENCODING 41
SWIDTH 500 0
DWIDTH 12 0
BBX 12 24 0 -5
BITMAP
0000
0000
0000
0000
1800
0C00
0600
0600
0300
0300
0300
0300
0300
0300
0300
0600
0600
0C00
1800
0000
0000
0000
0000
0000
ENDCHAR

STARTCHAR asterisk
ENCODING 42
SWIDTH 500 0
DWIDTH 12 0
BBX 12 24 0 -5
BITMAP
0000
0000
0000
0000
0000
0000
0000
60C0
3180
1B00
0E00
FFE0
0E00
1B00
3180
60C0
0000
0000
0000
0000
0000
0000
0000
0000
ENDCHAR

STARTCHAR plus
ENCODING 43
SWIDTH 500 0
DWIDTH 12 0
BBX 12 24 0 -5
BITMAP
0000
0000
0000
0000
0000
0000
0000
0600
0600
0600
0600
7FE0
0600
0600
0600
0600
0000
0000
0000
0000
0000
0000
0000
0000
ENDCHAR

STARTCHAR comma
ENCODING 44
SWIDTH 500 0
DWIDTH 12 0
BBX 12 24 0 -5
BITMAP
0000
0000
0000
0000
0000
0000
0000
0000
0000
0000
0000
0000
0000
0000
0000
0600
0600
0600
0600
0C00
0000
0000
0000
0000
ENDCHAR

STARTCHAR hyphen
ENCODING 45
SWIDTH 500 0
DWIDTH 12 0
BBX 12 24 0 -5
BITMAP
0000
0000
0000
0000
0000
0000
0000
0000
0000
0000
0000
7FE0
0000
0000
0000
0000
0000
0000
0000
0000
0000
0000
0000
0000
ENDCHAR

STARTCHAR period
ENCODING 46
SWIDTH 500 0
DWIDTH 12 0
BBX 12 24 0 -5
BITMAP
0000
0000
0000
0000
0000
0000
0000
0000
0000
0000
0000
0000
0000
0000
0000
0000
0600
0600
0600
0000
0000
0000
0000
0000
ENDCHAR

STARTCHAR slash
ENCODING 47
SWIDTH 500 0
DWIDTH 12 0
BBX 12 24 0 -5
BITMAP
0000
0000
0000
0000
0000
00C0
00C0
0180
0180
0300
0300
0600
0600
0C00
0C00
1800
1800
3000
3000
0000
0000
0000
0000
0000
ENDCHAR

STARTCHAR zero
ENCODING 48
SWIDTH 500 0
DWIDTH 12 0
BBX 12 24 0 -5
BITMAP
0000
0000
0000
0000
1F80
30C0
6060
6060
60E0
61E0
6360
6660
6C60
7860
7060
6060
6060
30C0
1F80
0000
0000
0000
0000
0000
ENDCHAR

STARTCHAR one
ENCODING 49
SWIDTH 500 0
DWIDTH 12 0
BBX 12 24 0 -5
BITMAP
0000
0000
0000
0000
0600
0E00
1E00
3600
0600
0600
0600
0600
0600
0600
0600
0600
0600
0600
3FC0
0000
0000
0000
0000
0000
ENDCHAR

STARTCHAR two
ENCODING 50
SWIDTH 500 0
DWIDTH 12 0
BBX 12 24 0 -5
BITMAP
0000
0000
0000
0000
1F80
30C0
6060
6060
6060
0060
00C0
0180
0300
0600
0C00
1800
3000
6000
7FE0
0000
0000
0000
0000
0000
ENDCHAR

STARTCHAR three
ENCODING 51
SWIDTH 500 0
DWIDTH 12 0
BBX 12 24 0 -5
BITMAP
0000
0000
0000
0000
1F80
30C0
6060
0060
0060
0060
00C0
0F80
00C0
0060
0060
0060
6060
30C0
1F80
0000
0000
0000
0000
0000
ENDCHAR

STARTCHAR four
ENCODING 52
SWIDTH 500 0
DWIDTH 12 0
BBX 12 24 0 -5
BITMAP
0000
0000
0000
0000
0060
00E0
01E0
0360
0660
0C60
1860
3060
6060
6060
6060
7FE0
0060
0060
0060
0000
0000
0000
0000
0000
ENDCHAR

STARTCHAR five
ENCODING 53
SWIDTH 500 0
DWIDTH 12 0
BBX 12 24 0 -5
BITMAP
0000
0000
0000
0000
7FE0
6000
6000
6000
6000
6000
7F80
00C0
0060
0060
0060
0060
6060
30C0
1F80
0000
0000
0000
0000
0000
ENDCHAR

STARTCHAR six
ENCODING 54
SWIDTH 500 0
DWIDTH 12 0
BBX 12 24 0 -5
BITMAP
0000
0000
0000
0000
1FC0
3000
6000
6000
6000
6000
7F80
60C0
6060
6060
6060
6060
6060
30C0
1F80
0000
0000
0000
0000
0000
ENDCHAR

STARTCHAR seven
ENCODING 55
SWIDTH 500 0
DWIDTH 12 0
BBX 12 24 0 -5
BITMAP
0000
0000
0000
0000
7FE0
6060
6060
0060
00C0
00C0
0180
0180
0300
0300
0600
0600
0600
0600
0600
0000
0000
0000
0000
0000
ENDCHAR

STARTCHAR eight
ENCODING 56
SWIDTH 500 0
DWIDTH 12 0
BBX 12 24 0 -5
BITMAP
0000
0000
0000
0000
1F80
30C0
6060
6060
6060
6060
30C0
1F80
30C0
6060
6060
6060
6060
30C0
1F80
0000
0000
0000
0000
0000
ENDCHAR

STARTCHAR nine
ENCODING 57
SWIDTH 500 0
DWIDTH 12 0
BBX 12 24 0 -5
BITMAP
0000
0000
0000
0000
1F80
30C0
6060
6060
6060
6060
6060
3060
1FE0
0060
0060
0060
0060
00C0
3F80
0000
0000
0000
0000
0000
ENDCHAR

STARTCHAR colon
ENCODING 58
SWIDTH 500 0
DWIDTH 12 0
BBX 12 24 0 -5
BITMAP
0000
0000
0000
0000
0000
0000
0000
0000
0600
0600
0600
0000
0000
0000
0000
0600
0600
0600
0000
0000
0000
0000
0000
0000
ENDCHAR

STARTCHAR semicolon
ENCODING 59
SWIDTH 500 0
DWIDTH 12 0
BBX 12 24 0 -5
BITMAP
0000
0000
0000
0000
0000
0000
0000
0000
0600
0600
0600
0000
0000
0000
0000
0600
0600
0600
0600
0C00
0000
0000
0000
0000
ENDCHAR

STARTCHAR less
ENCODING 60
SWIDTH 500 0
DWIDTH 12 0
BBX 12 24 0 -5
BITMAP
0000
0000
0000
0000
00C0
0180
0300
0600
0C00
1800
3000
6000
3000
1800
0C00
0600
0300
0180
00C0
0000
0000
0000
0000
0000
ENDCHAR

STARTCHAR equal
ENCODING 61
SWIDTH 500 0
DWIDTH 12 0
BBX 12 24 0 -5
BITMAP
0000
0000
0000
0000
0000
0000
0000
0000
0000
7FE0
0000
0000
0000
0000
7FE0
0000
0000
0000
0000
0000
0000
0000
0000
0000
ENDCHAR

STARTCHAR greater
ENCODING 62
SWIDTH 500 0
DWIDTH 12 0
BBX 12 24 0 -5
BITMAP
0000
0000
0000
0000
6000
3000
1800
0C00
0600
0300
0180
00C0
0180
0300
0600
0C00
1800
3000
6000
0000
0000
0000
0000
0000
ENDCHAR

STARTCHAR question
ENCODING 63
SWIDTH 500 0
DWIDTH 12 0
BBX 12 24 0 -5
BITMAP
0000
0000
0000
0000
1F80
30C0
6060
6060
6060
00C0
0180
0300
0600
0600
0000
0000
0600
0600
0600
0000
0000
0000
0000
0000
ENDCHAR

STARTCHAR at
ENCODING 64
SWIDTH 500 0
DWIDTH 12 0
BBX 12 24 0 -5
BITMAP
0000
0000
0000
0000
3F80
60C0
C060
C3E0
C660
CC60
CC60
CC60
CC60
CC60
C660
C3E0
C000
6000
3FE0
0000
0000
0000
0000
0000
ENDCHAR

STARTCHAR A
ENCODING 65
SWIDTH 500 0
DWIDTH 12 0
BBX 12 24 0 -5
BITMAP
0000
0000
0000
0000
1F80
30C0
6060
6060
6060
6060
6060
6060
7FE0
6060
6060
6060
6060
6060
6060
0000
0000
0000
0000
0000
ENDCHAR

STARTCHAR B
ENCODING 66
SWIDTH 500 0
DWIDTH 12 0
BBX 12 24 0 -5
BITMAP
0000
0000
0000
0000
7F80
60C0
6060
6060
6060
60C0
7F80
60C0
6060
6060
6060
6060
6060
60C0
7F80
0000
0000
0000
0000
0000
ENDCHAR

STARTCHAR C
ENCODING 67
SWIDTH 500 0
DWIDTH 12 0
BBX 12 24 0 -5
BITMAP
0000
0000
0000
0000
1F80
30C0
6060
6060
6000
6000
6000
6000
6000
6000
6000
6060
6060
30C0
1F80
0000
0000
0000
0000
0000
ENDCHAR

STARTCHAR D
ENCODING 68
SWIDTH 500 0
DWIDTH 12 0
BBX 12 24 0 -5
BITMAP
0000
0000
0000
0000
7F80
60C0
6060
6060
6060
6060
6060
6060
6060
6060
6060
6060
6060
60C0
7F80
0000
0000
0000
0000
0000
ENDCHAR

STARTCHAR E
ENCODING 69
SWIDTH 500 0
DWIDTH 12 0
BBX 12 24 0 -5
BITMAP
0000
0000
0000
0000
7FE0
6000
6000
6000
6000
6000
6000
7F80
6000
6000
6000
6000
6000
6000
7FE0
0000
0000
0000
0000
0000
ENDCHAR

STARTCHAR F
ENCODING 70
SWIDTH 500 0
DWIDTH 12 0
BBX 12 24 0 -5
BITMAP
0000
0000
0000
0000
7FE0
6000
6000
6000
6000
6000
6000
7F80
6000
6000
6000
6000
6000
6000
6000
0000
0000
0000
0000
0000
ENDCHAR

STARTCHAR G
ENCODING 71
SWIDTH 500 0
DWIDTH 12 0
BBX 12 24 0 -5
BITMAP
0000
0000
0000
0000
1F80
30C0
6060
6060
6000
6000
6000
63E0
6060
6060
6060
6060
6060
30C0
1F80
0000
0000
0000
0000
0000
ENDCHAR

STARTCHAR H
ENCODING 72
SWIDTH 500 0
DWIDTH 12 0
BBX 12 24 0 -5
BITMAP
0000
0000
0000
0000
6060
6060
6060
6060
6060
6060
6060
7FE0
6060
6060
6060
6060
6060
6060
6060
0000
0000
0000
0000
0000
ENDCHAR

STARTCHAR I
ENCODING 73
SWIDTH 500 0
DWIDTH 12 0
BBX 12 24 0 -5
BITMAP
0000
0000
0000
0000
1F80
0600
0600
0600
0600
0600
0600
0600
0600
0600
0600
0600
0600
0600
1F80
0000
0000
0000
0000
0000
ENDCHAR

STARTCHAR J
ENCODING 74
SWIDTH 500 0
DWIDTH 12 0
BBX 12 24 0 -5
BITMAP
0000
0000
0000
0000
03F0
00C0
00C0
00C0
00C0
00C0
00C0
00C0
00C0
00C0
60C0
60C0
60C0
3180
1F00
0000
0000
0000
0000
0000
ENDCHAR

STARTCHAR K
ENCODING 75
SWIDTH 500 0
DWIDTH 12 0
BBX 12 24 0 -5
BITMAP
0000
0000
0000
0000
6060
60C0
6180
6300
6600
6C00
7800
7000
7800
6C00
6600
6300
6180
60C0
6060
0000
0000
0000
0000
0000
ENDCHAR

STARTCHAR L
ENCODING 76
SWIDTH 500 0
DWIDTH 12 0
BBX 12 24 0 -5
BITMAP
0000
0000
0000
0000
6000
6000
6000
6000
6000
6000
6000
6000
6000
6000
6000
6000
6000
6000
7FE0
0000
0000
0000
0000
0000
ENDCHAR

STARTCHAR M
ENCODING 77
SWIDTH 500 0
DWIDTH 12 0
BBX 12 24 0 -5
BITMAP
0000
0000
0000
0000
8020
C060
E0E0
F1E0
DB60
CE60
C460
C060
C060
C060
C060
C060
C060
C060
C060
0000
0000
0000
0000
0000
ENDCHAR

STARTCHAR N
ENCODING 78
SWIDTH 500 0
DWIDTH 12 0
BBX 12 24 0 -5
BITMAP
0000
0000
0000
0000
6060
6060
6060
6060
7060
7860
6C60
6660
6360
61E0
60E0
6060
6060
6060
6060
0000
0000
0000
0000
0000
ENDCHAR

STARTCHAR O
ENCODING 79
SWIDTH 500 0
DWIDTH 12 0
BBX 12 24 0 -5
BITMAP
0000
0000
0000
0000
1F80
30C0
6060
6060
6060
6060
6060
6060
6060
6060
6060
6060
6060
30C0
1F80
0000
0000
0000
0000
0000
ENDCHAR

STARTCHAR P
ENCODING 80
SWIDTH 500 0
DWIDTH 12 0
BBX 12 24 0 -5
BITMAP
0000
0000
0000
0000
7F80
60C0
6060
6060
6060
6060
60C0
7F80
6000
6000
6000
6000
6000
6000
6000
0000
0000
0000
0000
0000
ENDCHAR

STARTCHAR Q
ENCODING 81
SWIDTH 500 0
DWIDTH 12 0
BBX 12 24 0 -5
BITMAP
0000
0000
0000
0000
1F80
30C0
6060
6060
6060
6060
6060
6060
6060
6060
6060
6060
6660
33C0
1F80
00C0
0060
0000
0000
0000
ENDCHAR

STARTCHAR R
ENCODING 82
SWIDTH 500 0
DWIDTH 12 0
BBX 12 24 0 -5
BITMAP
0000
0000
0000
0000
7F80
60C0
6060
6060
6060
6060
60C0
7F80
7800
6C00
6600
6300
6180
60C0
6060
0000
0000
0000
0000
0000
ENDCHAR

STARTCHAR S
ENCODING 83
SWIDTH 500 0
DWIDTH 12 0
BBX 12 24 0 -5
BITMAP
0000
0000
0000
0000
1F80
30C0
6060
6000
6000
6000
3000
1F80
00C0
0060
0060
0060
6060
30C0
1F80
0000
0000
0000
0000
0000
ENDCHAR

STARTCHAR T
ENCODING 84
SWIDTH 500 0
DWIDTH 12 0
BBX 12 24 0 -5
BITMAP
0000
0000
0000
0000
7FE0
0600
0600
0600
0600
0600
0600
0600
0600
0600
0600
0600
0600
0600
0600
0000
0000
0000
0000
0000
ENDCHAR

STARTCHAR U
ENCODING 85
SWIDTH 500 0
DWIDTH 12 0
BBX 12 24 0 -5
BITMAP
0000
0000
0000
0000
6060
6060
6060
6060
6060
6060
6060
6060
6060
6060
6060
6060
6060
30C0
1F80
0000
0000
0000
0000
0000
ENDCHAR

STARTCHAR V
ENCODING 86
SWIDTH 500 0
DWIDTH 12 0
BBX 12 24 0 -5
BITMAP
0000
0000
0000
0000
6060
6060
6060
6060
30C0
30C0
30C0
30C0
1980
1980
1980
0F00
0F00
0600
0600
0000
0000
0000
0000
0000
ENDCHAR

STARTCHAR W
ENCODING 87
SWIDTH 500 0
DWIDTH 12 0
BBX 12 24 0 -5
BITMAP
0000
0000
0000
0000
C060
C060
C060
C060
C060
C060
C060
C060
C460
CE60
DB60
F1E0
E0E0
C060
8020
0000
0000
0000
0000
0000
ENDCHAR

STARTCHAR X
ENCODING 88
SWIDTH 500 0
DWIDTH 12 0
BBX 12 24 0 -5
BITMAP
0000
0000
0000
0000
6060
6060
30C0
30C0
1980
1980
0F00
0600
0F00
1980
1980
30C0
30C0
6060
6060
0000
0000
0000
0000
0000
ENDCHAR

STARTCHAR Y
ENCODING 89
SWIDTH 500 0
DWIDTH 12 0
BBX 12 24 0 -5
BITMAP
0000
0000
0000
0000
6060
6060
30C0
30C0
1980
1980
0F00
0F00
0600
0600
0600
0600
0600
0600
0600
0000
0000
0000
0000
0000
ENDCHAR

STARTCHAR Z
ENCODING 90
SWIDTH 500 0
DWIDTH 12 0
BBX 12 24 0 -5
BITMAP
0000
0000
0000
0000
7FE0
0060
0060
0060
00C0
0180
0300
0600
0C00
1800
3000
6000
6000
6000
7FE0
0000
0000
0000
0000
0000
ENDCHAR

STARTCHAR bracketleft
ENCODING 91
SWIDTH 500 0
DWIDTH 12 0
BBX 12 24 0 -5
BITMAP
0000
0000
0000
0000
1F00
1800
1800
1800
1800
1800
1800
1800
1800
1800
1800
1800
1800
1800
1F00
0000
0000
0000
0000
0000
ENDCHAR

STARTCHAR backslash
ENCODING 92
SWIDTH 500 0
DWIDTH 12 0
BBX 12 24 0 -5
BITMAP
0000
0000
0000
0000
0000
3000
3000
1800
1800
0C00
0C00
0600
0600
0300
0300
0180
0180
00C0
00C0
0000
0000
0000
0000
0000
ENDCHAR

STARTCHAR bracketright
ENCODING 93
SWIDTH 500 0
DWIDTH 12 0
BBX 12 24 0 -5
BITMAP
0000
0000
0000
0000
1F00
0300
0300
0300
0300
0300
0300
0300
0300
0300
0300
0300
0300
0300
1F00
0000
0000
0000
0000
0000
ENDCHAR

STARTCHAR asciicircum
ENCODING 94
SWIDTH 500 0
DWIDTH 12 0
BBX 12 24 0 -5
BITMAP
0000
0000
0600
0F00
1980
30C0
6060
0000
0000
0000
0000
0000
0000
0000
0000
0000
0000
0000
0000
0000
0000
0000
0000
0000
ENDCHAR

STARTCHAR underscore
ENCODING 95
SWIDTH 500 0
DWIDTH 12 0
BBX 12 24 0 -5
BITMAP
0000
0000
0000
0000
0000
0000
0000
0000
0000
0000
0000
0000
0000
0000
0000
0000
0000
0000
0000
0000
7FE0
0000
0000
0000
ENDCHAR

STARTCHAR grave
ENCODING 96
SWIDTH 500 0
DWIDTH 12 0
BBX 12 24 0 -5
BITMAP
1800
0C00
0600
0000
0000
0000
0000
0000
0000
0000
0000
0000
0000
0000
0000
0000
0000
0000
0000
0000
0000
0000
0000
0000
ENDCHAR

STARTCHAR a
ENCODING 97
SWIDTH 500 0
DWIDTH 12 0
BBX 12 24 0 -5
BITMAP
0000
0000
0000
0000
0000
0000
0000
0000
3F80
00C0
0060
0060
1FE0
3060
6060
6060
6060
3060
1FE0
0000
0000
0000
0000
0000
ENDCHAR

STARTCHAR b
ENCODING 98
SWIDTH 500 0
DWIDTH 12 0
BBX 12 24 0 -5
BITMAP
0000
0000
0000
0000
6000
6000
6000
6000
7F80
60C0
6060
6060
6060
6060
6060
6060
6060
60C0
7F80
0000
0000
0000
0000
0000
ENDCHAR

STARTCHAR c
ENCODING 99
SWIDTH 500 0
DWIDTH 12 0
BBX 12 24 0 -5
BITMAP
0000
0000
0000
0000
0000
0000
0000
0000
1F80
30C0
6060
6000
6000
6000
6000
6000
6060
30C0
1F80
0000
0000
0000
0000
0000
ENDCHAR

STARTCHAR d
ENCODING 100
SWIDTH 500 0
DWIDTH 12 0
BBX 12 24 0 -5
BITMAP
0000
0000
0000
0000
0060
0060
0060
0060
1FE0
3060
6060
6060
6060
6060
6060
6060
6060
3060
1FE0
0000
0000
0000
0000
0000
ENDCHAR

STARTCHAR e
ENCODING 101
SWIDTH 500 0
DWIDTH 12 0
BBX 12 24 0 -5
BITMAP
0000
0000
0000
0000
0000
0000
0000
0000
1F80
30C0
6060
6060
6060
7FE0
6000
6000
6000
3060
1FC0
0000
0000
0000
0000
0000
ENDCHAR

STARTCHAR f
ENCODING 102
SWIDTH 500 0
DWIDTH 12 0
BBX 12 24 0 -5
BITMAP
0000
0000
0000
0000
03E0
0600
0600
0600
3FC0
0600
0600
0600
0600
0600
0600
0600
0600
0600
0600
0000
0000
0000
0000
0000
ENDCHAR

STARTCHAR g
ENCODING 103
SWIDTH 500 0
DWIDTH 12 0
BBX 12 24 0 -5
BITMAP
0000
0000
0000
0000
0000
0000
0000
0000
1FE0
3060
6060
6060
6060
6060
6060
6060
6060
30E0
1FE0
0060
0060
00C0
3F80
0000
ENDCHAR

STARTCHAR h
ENCODING 104
SWIDTH 500 0
DWIDTH 12 0
BBX 12 24 0 -5
BITMAP
0000
0000
0000
0000
6000
6000
6000
6000
7F80
60C0
6060
6060
6060
6060
6060
6060
6060
6060
6060
0000
0000
0000
0000
0000
ENDCHAR

STARTCHAR i
ENCODING 105
SWIDTH 500 0
DWIDTH 12 0
BBX 12 24 0 -5
BITMAP
0000
0000
0000
0000
0600
0600
0600
0000
1E00
0600
0600
0600
0600
0600
0600
0600
0600
0600
1F80
0000
0000
0000
0000
0000
ENDCHAR

STARTCHAR j
ENCODING 106
SWIDTH 500 0
DWIDTH 12 0
BBX 12 24 0 -5
BITMAP
0000
0000
0000
0000
00C0
00C0
00C0
0000
03C0
00C0
00C0
00C0
00C0
00C0
00C0
00C0
00C0
00C0
00C0
30C0
30C0
1980
0F00
0000
ENDCHAR

STARTCHAR k
ENCODING 107
SWIDTH 500 0
DWIDTH 12 0
BBX 12 24 0 -5
BITMAP
0000
0000
0000
0000
3000
3000
3000
3000
3060
30C0
3180
3300
3600
3C00
3600
3300
3180
30C0
3060
0000
0000
0000
0000
0000
ENDCHAR

STARTCHAR l
ENCODING 108
SWIDTH 500 0
DWIDTH 12 0
BBX 12 24 0 -5
BITMAP
0000
0000
0000
0000
1E00
0600
0600
0600
0600
0600
0600
0600
0600
0600
0600
0600
0600
0600
1F80
0000
0000
0000
0000
0000
ENDCHAR

STARTCHAR m
ENCODING 109
SWIDTH 500 0
DWIDTH 12 0
BBX 12 24 0 -5
BITMAP
0000
0000
0000
0000
0000
0000
0000
0000
7F80
66C0
6660
6660
6660
6660
6660
6660
6660
6660
6660
0000
0000
0000
0000
0000
ENDCHAR

STARTCHAR n
ENCODING 110
SWIDTH 500 0
DWIDTH 12 0
BBX 12 24 0 -5
BITMAP
0000
0000
0000
0000
0000
0000
0000
0000
7F80
60C0
6060
6060
6060
6060
6060
6060
6060
6060
6060
0000
0000
0000
0000
0000
ENDCHAR

STARTCHAR o
ENCODING 111
SWIDTH 500 0
DWIDTH 12 0
BBX 12 24 0 -5
BITMAP
0000
0000
0000
0000
0000
0000
0000
0000
1F80
30C0
6060
6060
6060
6060
6060
6060
6060
30C0
1F80
0000
0000
0000
0000
0000
ENDCHAR

STARTCHAR p
ENCODING 112
SWIDTH 500 0
DWIDTH 12 0
BBX 12 24 0 -5
BITMAP
0000
0000
0000
0000
0000
0000
0000
0000
7F80
60C0
6060
6060
6060
6060
6060
6060
6060
60C0
7F80
6000
6000
6000
6000
0000
ENDCHAR

STARTCHAR q
ENCODING 113
SWIDTH 500 0
DWIDTH 12 0
BBX 12 24 0 -5
BITMAP
0000
0000
0000
0000
0000
0000
0000
0000
1FE0
3060
6060
6060
6060
6060
6060
6060
6060
3060
1FE0
0060
0060
0060
0060
0000
ENDCHAR

STARTCHAR r
ENCODING 114
SWIDTH 500 0
DWIDTH 12 0
BBX 12 24 0 -5
BITMAP
0000
0000
0000
0000
0000
0000
0000
0000
67E0
6C00
7800
7000
6000
6000
6000
6000
6000
6000
6000
0000
0000
0000
0000
0000
ENDCHAR

STARTCHAR s
ENCODING 115
SWIDTH 500 0
DWIDTH 12 0
BBX 12 24 0 -5
BITMAP
0000
0000
0000
0000
0000
0000
0000
0000
3FC0
6060
6000
6000
6000
3FC0
0060
0060
0060
6060
3FC0
0000
0000
0000
0000
0000
ENDCHAR

STARTCHAR t
ENCODING 116
SWIDTH 500 0
DWIDTH 12 0
BBX 12 24 0 -5
BITMAP
0000
0000
0000
0000
0C00
0C00
0C00
0C00
7F80
0C00
0C00
0C00
0C00
0C00
0C00
0C00
0C00
0C00
07C0
0000
0000
0000
0000
0000
ENDCHAR

STARTCHAR u
ENCODING 117
SWIDTH 500 0
DWIDTH 12 0
BBX 12 24 0 -5
BITMAP
0000
0000
0000
0000
0000
0000
0000
0000
6060
6060
6060
6060
6060
6060
6060
6060
6060
3060
1FE0
0000
0000
0000
0000
0000
ENDCHAR

STARTCHAR v
ENCODING 118
SWIDTH 500 0
DWIDTH 12 0
BBX 12 24 0 -5
BITMAP
0000
0000
0000
0000
0000
0000
0000
0000
6060
6060
6060
30C0
30C0
1980
1980
0F00
0F00
0600
0600
0000
0000
0000
0000
0000
ENDCHAR

STARTCHAR w
ENCODING 119
SWIDTH 500 0
DWIDTH 12 0
BBX 12 24 0 -5
BITMAP
0000
0000
0000
0000
0000
0000
0000
0000
6060
6060
6060
6060
6660
6660
6660
6660
6660
6660
3FC0
0000
0000
0000
0000
0000
ENDCHAR

STARTCHAR x
ENCODING 120
SWIDTH 500 0
DWIDTH 12 0
BBX 12 24 0 -5
BITMAP
0000
0000
0000
0000
0000
0000
0000
0000
6060
6060
30C0
1980
0F00
0600
0F00
1980
30C0
6060
6060
0000
0000
0000
0000
0000
ENDCHAR

STARTCHAR y
ENCODING 121
SWIDTH 500 0
DWIDTH 12 0
BBX 12 24 0 -5
BITMAP
0000
0000
0000
0000
0000
0000
0000
0000
6060
6060
6060
6060
6060
6060
6060
6060
6060
30E0
1FE0
0060
0060
00C0
3F80
0000
ENDCHAR

STARTCHAR z
ENCODING 122
SWIDTH 500 0
DWIDTH 12 0
BBX 12 24 0 -5
BITMAP
0000
0000
0000
0000
0000
0000
0000
0000
7FE0
0060
00C0
0180
0300
0600
0C00
1800
3000
6000
7FE0
0000
0000
0000
0000
0000
ENDCHAR

STARTCHAR braceleft
ENCODING 123
SWIDTH 500 0
DWIDTH 12 0
BBX 12 24 0 -5
BITMAP
0000
0000
0000
0000
0380
0600
0C00
0C00
0C00
0C00
0C00
3800
0C00
0C00
0C00
0C00
0C00
0600
0380
0000
0000
0000
0000
0000
ENDCHAR

STARTCHAR bar
ENCODING 124
SWIDTH 500 0
DWIDTH 12 0
BBX 12 24 0 -5
BITMAP
0000
0000
0000
0000
0600
0600
0600
0600
0600
0600
0600
0600
0600
0600
0600
0600
0600
0600
0600
0000
0000
0000
0000
0000
ENDCHAR

STARTCHAR braceright
ENCODING 125
SWIDTH 500 0
DWIDTH 12 0
BBX 12 24 0 -5
BITMAP
0000
0000
0000
0000
3800
0C00
0600
0600
0600
0600
0600
0380
0600
0600
0600
0600
0600
0C00
3800
0000
0000
0000
0000
0000
ENDCHAR

STARTCHAR asciitilde
ENCODING 126
SWIDTH 500 0
DWIDTH 12 0
BBX 12 24 0 -5
BITMAP
0000
0000
0000
0000
0000
0000
0000
0000
0000
0000
3C60
6660
6660
63C0
0000
0000
0000
0000
0000
0000
0000
0000
0000
0000
ENDCHAR

STARTCHAR space
ENCODING 160
SWIDTH 500 0
DWIDTH 12 0
BBX 12 24 0 -5
BITMAP
0000
0000
0000
0000
0000
0000
0000
0000
0000
0000
0000
0000
0000
0000
0000
0000
0000
0000
0000
0000
0000
0000
0000
0000
ENDCHAR

STARTCHAR exclamdown
ENCODING 161
SWIDTH 500 0
DWIDTH 12 0
BBX 12 24 0 -5
BITMAP
0000
0000
0000
0000
0600
0600
0600
0000
0000
0600
0600
0600
0600
0600
0600
0600
0600
0600
0600
0000
0000
0000
0000
0000
ENDCHAR

STARTCHAR cent
ENCODING 162
SWIDTH 500 0
DWIDTH 12 0
BBX 12 24 0 -5
BITMAP
0000
0000
0000
0000
0000
0000
0600
0600
1F80
36C0
6660
6600
6600
6600
6600
6600
6660
36C0
1F80
0600
0600
0000
0000
0000
ENDCHAR

STARTCHAR sterling
ENCODING 163
SWIDTH 500 0
DWIDTH 12 0
BBX 12 24 0 -5
BITMAP
0000
0000
0000
0000
0F00
1980
30C0
3000
3000
3000
3000
7F00
3000
3000
3000
3000
3060
3060
7FE0
0000
0000
0000
0000
0000
ENDCHAR

STARTCHAR Euro
ENCODING 164
SWIDTH 500 0
DWIDTH 12 0
BBX 12 24 0 -5
BITMAP
0000
0000
0000
0000
0000
0F80
18C0
3060
6000
6000
FF00
6000
6000
FF00
6000
6000
3060
18C0
0F80
0000
0000
0000
0000
0000
ENDCHAR

STARTCHAR yen
ENCODING 165
SWIDTH 500 0
DWIDTH 12 0
BBX 12 24 0 -5
BITMAP
0000
0000
0000
0000
6060
6060
30C0
30C0
1980
1980
0F00
0600
0600
3FC0
0600
0600
3FC0
0600
0600
0000
0000
0000
0000
0000
ENDCHAR

STARTCHAR Scaron
ENCODING 166
SWIDTH 500 0
DWIDTH 12 0
BBX 12 24 0 -5
BITMAP
1980
0F00
0600
0000
1F80
30C0
6060
6000
6000
6000
3000
1F80
00C0
0060
0060
0060
6060
30C0
1F80
0000
0000
0000
0000
0000
ENDCHAR

STARTCHAR section
ENCODING 167
SWIDTH 500 0
DWIDTH 12 0
BBX 12 24 0 -5
BITMAP
0000
0000
0000
1F00
3180
3000
3000
1E00
3300
3180
3180
3180
3180
1980
0F00
0180
0180
3180
1F00
0000
0000
0000
0000
0000
ENDCHAR

STARTCHAR scaron
ENCODING 168
SWIDTH 500 0
DWIDTH 12 0
BBX 12 24 0 -5
BITMAP
0000
0000
0000
0000
1980
0F00
0600
0000
3FC0
6060
6000
6000
6000
3FC0
0060
0060
0060
6060
3FC0
0000
0000
0000
0000
0000
ENDCHAR

STARTCHAR copyright
ENCODING 169
SWIDTH 500 0
DWIDTH 12 0
BBX 12 24 0 -5
BITMAP
0000
0000
0000
0000
0000
0000
3F80
4040
9F20
B1A0
B1A0
B020
B020
B1A0
B1A0
9F20
4040
3F80
0000
0000
0000
0000
0000
0000
ENDCHAR

STARTCHAR ordfeminine
ENCODING 170
SWIDTH 500 0
DWIDTH 12 0
BBX 12 24 0 -5
BITMAP
0000
3F80
00C0
00C0
3FC0
60C0
60C0
60C0
60C0
3FC0
0000
7FC0
0000
0000
0000
0000
0000
0000
0000
0000
0000
0000
0000
0000
ENDCHAR

STARTCHAR guillemotleft
ENCODING 171
SWIDTH 500 0
DWIDTH 12 0
BBX 12 24 0 -5
BITMAP
0000
0000
0000
0000
0000
0000
0000
0000
0660
0CC0
1980
3300
6600
CC00
6600
3300
1980
0CC0
0660
0000
0000
0000
0000
0000
ENDCHAR

STARTCHAR logicalnot
ENCODING 172
SWIDTH 500 0
DWIDTH 12 0
BBX 12 24 0 -5
BITMAP
0000
0000
0000
0000
0000
0000
0000
0000
0000
7FE0
0060
0060
0060
0060
0060
0000
0000
0000
0000
0000
0000
0000
0000
0000
ENDCHAR

STARTCHAR hyphen
ENCODING 173
SWIDTH 500 0
DWIDTH 12 0
BBX 12 24 0 -5
BITMAP
0000
0000
0000
0000
0000
0000
0000
0000
0000
0000
0000
3FC0
0000
0000
0000
0000
0000
0000
0000
0000
0000
0000
0000
0000
ENDCHAR

STARTCHAR registered
ENCODING 174
SWIDTH 500 0
DWIDTH 12 0
BBX 12 24 0 -5
BITMAP
0000
0000
0000
0000
0000
0000
3F80
4040
BF20
B1A0
B1A0
B1A0
BF20
B620
B320
B1A0
4040
3F80
0000
0000
0000
0000
0000
0000
ENDCHAR

STARTCHAR macron
ENCODING 175
SWIDTH 500 0
DWIDTH 12 0
BBX 12 24 0 -5
BITMAP
0000
3FC0
0000
0000
0000
0000
0000
0000
0000
0000
0000
0000
0000
0000
0000
0000
0000
0000
0000
0000
0000
0000
0000
0000
ENDCHAR

STARTCHAR degree
ENCODING 176
SWIDTH 500 0
DWIDTH 12 0
BBX 12 24 0 -5
BITMAP
0000
0000
1F00
3180
3180
3180
3180
1F00
0000
0000
0000
0000
0000
0000
0000
0000
0000
0000
0000
0000
0000
0000
0000
0000
ENDCHAR

STARTCHAR plusminus
ENCODING 177
SWIDTH 500 0
DWIDTH 12 0
BBX 12 24 0 -5
BITMAP
0000
0000
0000
0000
0000
0000
0000
0600
0600
0600
0600
7FE0
0600
0600
0600
0600
0000
0000
7FE0
0000
0000
0000
0000
0000
ENDCHAR

STARTCHAR twosuperior
ENCODING 178
SWIDTH 500 0
DWIDTH 12 0
BBX 12 24 0 -5
BITMAP
0000
0000
1F00
3180
3180
0180
0300
0600
0C00
1800
3F80
0000
0000
0000
0000
0000
0000
0000
0000
0000
0000
0000
0000
0000
ENDCHAR

STARTCHAR threesuperior
ENCODING 179
SWIDTH 500 0
DWIDTH 12 0
BBX 12 24 0 -5
BITMAP
0000
0000
1F00
3180
0180
0180
0F00
0180
0180
3180
1F00
0000
0000
0000
0000
0000
0000
0000
0000
0000
0000
0000
0000
0000
ENDCHAR

STARTCHAR Zcaron
ENCODING 180
SWIDTH 500 0
DWIDTH 12 0
BBX 12 24 0 -5
BITMAP
1980
0F00
0600
0000
7FE0
0060
0060
0060
00C0
0180
0300
0600
0C00
1800
3000
6000
6000
6000
7FE0
0000
0000
0000
0000
0000
ENDCHAR

STARTCHAR mu
ENCODING 181
SWIDTH 500 0
DWIDTH 12 0
BBX 12 24 0 -5
BITMAP
0000
0000
0000
0000
0000
0000
0000
0000
6060
6060
6060
6060
6060
6060
6060
6060
60E0
61E0
7F60
6000
6000
6000
6000
0000
ENDCHAR

STARTCHAR paragraph
ENCODING 182
SWIDTH 500 0
DWIDTH 12 0
BBX 12 24 0 -5
BITMAP
0000
0000
0000
0000
3FE0
6660
6660
6660
6660
6660
6660
3E60
0660
0660
0660
0660
0660
0660
0660
0000
0000
0000
0000
0000
ENDCHAR

STARTCHAR periodcentered
ENCODING 183
SWIDTH 500 0
DWIDTH 12 0
BBX 12 24 0 -5
BITMAP
0000
0000
0000
0000
0000
0000
0000
0000
0000
0000
0600
0600
0600
0000
0000
0000
0000
0000
0000
0000
0000
0000
0000
0000
ENDCHAR

STARTCHAR zcaron
ENCODING 184
SWIDTH 500 0
DWIDTH 12 0
BBX 12 24 0 -5
BITMAP
0000
0000
0000
0000
1980
0F00
0600
0000
7FE0
0060
00C0
0180
0300
0600
0C00
1800
3000
6000
7FE0
0000
0000
0000
0000
0000
ENDCHAR

STARTCHAR onesuperior
ENCODING 185
SWIDTH 500 0
DWIDTH 12 0
BBX 12 24 0 -5
BITMAP
0000
0000
0600
0E00
1E00
0600
0600
0600
0600
0600
1F80
0000
0000
0000
0000
0000
0000
0000
0000
0000
0000
0000
0000
0000
ENDCHAR

STARTCHAR ordmasculine
ENCODING 186
SWIDTH 500 0
DWIDTH 12 0
BBX 12 24 0 -5
BITMAP
0000
1F00
3180
60C0
60C0
60C0
60C0
60C0
3180
1F00
0000
7FC0
0000
0000
0000
0000
0000
0000
0000
0000
0000
0000
0000
0000
ENDCHAR

STARTCHAR guillemotright
ENCODING 187
SWIDTH 500 0
DWIDTH 12 0
BBX 12 24 0 -5
BITMAP
0000
0000
0000
0000
0000
0000
0000
0000
CC00
6600
3300
1980
0CC0
0660
0CC0
1980
3300
6600
CC00
0000
0000
0000
0000
0000
ENDCHAR

STARTCHAR OE
ENCODING 188
SWIDTH 500 0
DWIDTH 12 0
BBX 12 24 0 -5
BITMAP
0000
0000
0000
0000
3FF0
6300
C300
C300
C300
C300
C300
C3F0
C300
C300
C300
C300
C300
6300
3FF0
0000
0000
0000
0000
0000
ENDCHAR

STARTCHAR oe
ENCODING 189
SWIDTH 500 0
DWIDTH 12 0
BBX 12 24 0 -5
BITMAP
0000
0000
0000
0000
0000
0000
0000
0000
3FC0
6660
C630
C630
C630
C7F0
C600
C600
C600
6630
3FE0
0000
0000
0000
0000
0000
ENDCHAR

STARTCHAR Ydieresis
ENCODING 190
SWIDTH 500 0
DWIDTH 12 0
BBX 12 24 0 -5
BITMAP
1980
1980
1980
0000
6060
6060
30C0
30C0
1980
1980
0F00
0F00
0600
0600
0600
0600
0600
0600
0600
0000
0000
0000
0000
0000
ENDCHAR

STARTCHAR questiondown
ENCODING 191
SWIDTH 500 0
DWIDTH 12 0
BBX 12 24 0 -5
BITMAP
0000
0000
0000
0000
0600
0600
0600
0000
0000
0600
0600
0C00
1800
3000
6060
6060
6060
30C0
1F80
0000
0000
0000
0000
0000
ENDCHAR

STARTCHAR Agrave
ENCODING 192
SWIDTH 500 0
DWIDTH 12 0
BBX 12 24 0 -5
BITMAP
1800
0C00
0600
0000
1F80
30C0
6060
6060
6060
6060
6060
6060
7FE0
6060
6060
6060
6060
6060
6060
0000
0000
0000
0000
0000
ENDCHAR

STARTCHAR Aacute
ENCODING 193
SWIDTH 500 0
DWIDTH 12 0
BBX 12 24 0 -5
BITMAP
0180
0300
0600
0000
1F80
30C0
6060
6060
6060
6060
6060
6060
7FE0
6060
6060
6060
6060
6060
6060
0000
0000
0000
0000
0000
ENDCHAR

STARTCHAR Acircumflex
ENCODING 194
SWIDTH 500 0
DWIDTH 12 0
BBX 12 24 0 -5
BITMAP
0600
0F00
1980
0000
1F80
30C0
6060
6060
6060
6060
6060
6060
7FE0
6060
6060
6060
6060
6060
6060
0000
0000
0000
0000
0000
ENDCHAR

STARTCHAR Atilde
ENCODING 195
SWIDTH 500 0
DWIDTH 12 0
BBX 12 24 0 -5
BITMAP
1CC0
36C0
3380
0000
1F80
30C0
6060
6060
6060
6060
6060
6060
7FE0
6060
6060
6060
6060
6060
6060
0000
0000
0000
0000
0000
ENDCHAR

STARTCHAR Adieresis
ENCODING 196
SWIDTH 500 0
DWIDTH 12 0
BBX 12 24 0 -5
BITMAP
1980
1980
1980
0000
1F80
30C0
6060
6060
6060
6060
6060
6060
7FE0
6060
6060
6060
6060
6060
6060
0000
0000
0000
0000
0000
ENDCHAR

STARTCHAR Aring
ENCODING 197
SWIDTH 500 0
DWIDTH 12 0
BBX 12 24 0 -5
BITMAP
0F00
1980
1980
0F00
1F80
30C0
6060
6060
6060
6060
6060
6060
7FE0
6060
6060
6060
6060
6060
6060
0000
0000
0000
0000
0000
ENDCHAR

STARTCHAR AE
ENCODING 198
SWIDTH 500 0
DWIDTH 12 0
BBX 12 24 0 -5
BITMAP
0000
0000
0000
0000
3FF0
6300
C300
C300
C300
C300
C300
FFF0
C300
C300
C300
C300
C300
C300
C3F0
0000
0000
0000
0000
0000
ENDCHAR

STARTCHAR Ccedilla
ENCODING 199
SWIDTH 500 0
DWIDTH 12 0
BBX 12 24 0 -5
BITMAP
0000
0000
0000
0000
1F80
30C0
6060
6060
6000
6000
6000
6000
6000
6000
6000
6060
6060
30C0
1F80
0600
0600
0600
0C00
0000
ENDCHAR

STARTCHAR Egrave
ENCODING 200
SWIDTH 500 0
DWIDTH 12 0
BBX 12 24 0 -5
BITMAP
1800
0C00
0600
0000
7FE0
6000
6000
6000
6000
6000
6000
7F80
6000
6000
6000
6000
6000
6000
7FE0
0000
0000
0000
0000
0000
ENDCHAR

STARTCHAR Eacute
ENCODING 201
SWIDTH 500 0
DWIDTH 12 0
BBX 12 24 0 -5
BITMAP
0180
0300
0600
0000
7FE0
6000
6000
6000
6000
6000
6000
7F80
6000
6000
6000
6000
6000
6000
7FE0
0000
0000
0000
0000
0000
ENDCHAR

STARTCHAR Ecircumflex
ENCODING 202
SWIDTH 500 0
DWIDTH 12 0
BBX 12 24 0 -5
BITMAP
0600
0F00
1980
0000
7FE0
6000
6000
6000
6000
6000
6000
7F80
6000
6000
6000
6000
6000
6000
7FE0
0000
0000
0000
0000
0000
ENDCHAR

STARTCHAR Edieresis
ENCODING 203
SWIDTH 500 0
DWIDTH 12 0
BBX 12 24 0 -5
BITMAP
1980
1980
1980
0000
7FE0
6000
6000
6000
6000
6000
6000
7F80
6000
6000
6000
6000
6000
6000
7FE0
0000
0000
0000
0000
0000
ENDCHAR

STARTCHAR Igrave
ENCODING 204
SWIDTH 500 0
DWIDTH 12 0
BBX 12 24 0 -5
BITMAP
1800
0C00
0600
0000
1F80
0600
0600
0600
0600
0600
0600
0600
0600
0600
0600
0600
0600
0600
1F80
0000
0000
0000
0000
0000
ENDCHAR

STARTCHAR Iacute
ENCODING 205
SWIDTH 500 0
DWIDTH 12 0
BBX 12 24 0 -5
BITMAP
0180
0300
0600
0000
1F80
0600
0600
0600
0600
0600
0600
0600
0600
0600
0600
0600
0600
0600
1F80
0000
0000
0000
0000
0000
ENDCHAR

STARTCHAR Icircumflex
ENCODING 206
SWIDTH 500 0
DWIDTH 12 0
BBX 12 24 0 -5
BITMAP
0600
0F00
1980
0000
1F80
0600
0600
0600
0600
0600
0600
0600
0600
0600
0600
0600
0600
0600
1F80
0000
0000
0000
0000
0000
ENDCHAR

STARTCHAR Idieresis
ENCODING 207
SWIDTH 500 0
DWIDTH 12 0
BBX 12 24 0 -5
BITMAP
1980
1980
1980
0000
1F80
0600
0600
0600
0600
0600
0600
0600
0600
0600
0600
0600
0600
0600
1F80
0000
0000
0000
0000
0000
ENDCHAR

STARTCHAR Eth
ENCODING 208
SWIDTH 500 0
DWIDTH 12 0
BBX 12 24 0 -5
BITMAP
0000
0000
0000
0000
7F80
60C0
6060
6060
6060
6060
6060
FE60
6060
6060
6060
6060
6060
60C0
7F80
0000
0000
0000
0000
0000
ENDCHAR

STARTCHAR Ntilde
ENCODING 209
SWIDTH 500 0
DWIDTH 12 0
BBX 12 24 0 -5
BITMAP
1CC0
36C0
3380
0000
6060
6060
6060
6060
7060
7860
6C60
6660
6360
61E0
60E0
6060
6060
6060
6060
0000
0000
0000
0000
0000
ENDCHAR

STARTCHAR Ograve
ENCODING 210
SWIDTH 500 0
DWIDTH 12 0
BBX 12 24 0 -5
BITMAP
1800
0C00
0600
0000
1F80
30C0
6060
6060
6060
6060
6060
6060
6060
6060
6060
6060
6060
30C0
1F80
0000
0000
0000
0000
0000
ENDCHAR

STARTCHAR Oacute
ENCODING 211
SWIDTH 500 0
DWIDTH 12 0
BBX 12 24 0 -5
BITMAP
0180
0300
0600
0000
1F80
30C0
6060
6060
6060
6060
6060
6060
6060
6060
6060
6060
6060
30C0
1F80
0000
0000
0000
0000
0000
ENDCHAR

STARTCHAR Ocircumflex
ENCODING 212
SWIDTH 500 0
DWIDTH 12 0
BBX 12 24 0 -5
BITMAP
0600
0F00
1980
0000
1F80
30C0
6060
6060
6060
6060
6060
6060
6060
6060
6060
6060
6060
30C0
1F80
0000
0000
0000
0000
0000
ENDCHAR

STARTCHAR Otilde
ENCODING 213
SWIDTH 500 0
DWIDTH 12 0
BBX 12 24 0 -5
BITMAP
1CC0
36C0
3380
0000
1F80
30C0
6060
6060
6060
6060
6060
6060
6060
6060
6060
6060
6060
30C0
1F80
0000
0000
0000
0000
0000
ENDCHAR

STARTCHAR Odieresis
ENCODING 214
SWIDTH 500 0
DWIDTH 12 0
BBX 12 24 0 -5
BITMAP
1980
1980
1980
0000
1F80
30C0
6060
6060
6060
6060
6060
6060
6060
6060
6060
6060
6060
30C0
1F80
0000
0000
0000
0000
0000
ENDCHAR

STARTCHAR multiply
ENCODING 215
SWIDTH 500 0
DWIDTH 12 0
BBX 12 24 0 -5
BITMAP
0000
0000
0000
0000
0000
0000
0000
6060
30C0
1980
0F00
0600
0F00
1980
30C0
6060
0000
0000
0000
0000
0000
0000
0000
0000
ENDCHAR

STARTCHAR Oslash
ENCODING 216
SWIDTH 500 0
DWIDTH 12 0
BBX 12 24 0 -5
BITMAP
0000
0000
0000
0000
1F80
30C0
6070
6060
60E0
61E0
6360
6660
6C60
7860
7060
6060
E060
30C0
1F80
0000
0000
0000
0000
0000
ENDCHAR

STARTCHAR Ugrave
ENCODING 217
SWIDTH 500 0
DWIDTH 12 0
BBX 12 24 0 -5
BITMAP
1800
0C00
0600
0000
6060
6060
6060
6060
6060
6060
6060
6060
6060
6060
6060
6060
6060
30C0
1F80
0000
0000
0000
0000
0000
ENDCHAR

STARTCHAR Uacute
ENCODING 218
SWIDTH 500 0
DWIDTH 12 0
BBX 12 24 0 -5
BITMAP
0180
0300
0600
0000
6060
6060
6060
6060
6060
6060
6060
6060
6060
6060
6060
6060
6060
30C0
1F80
0000
0000
0000
0000
0000
ENDCHAR

STARTCHAR Ucircumflex
ENCODING 219
SWIDTH 500 0
DWIDTH 12 0
BBX 12 24 0 -5
BITMAP
0600
0F00
1980
0000
6060
6060
6060
6060
6060
6060
6060
6060
6060
6060
6060
6060
6060
30C0
1F80
0000
0000
0000
0000
0000
ENDCHAR

STARTCHAR Udieresis
ENCODING 220
SWIDTH 500 0
DWIDTH 12 0
BBX 12 24 0 -5
BITMAP
1980
1980
1980
0000
6060
6060
6060
6060
6060
6060
6060
6060
6060
6060
6060
6060
6060
30C0
1F80
0000
0000
0000
0000
0000
ENDCHAR

STARTCHAR Yacute
ENCODING 221
SWIDTH 500 0
DWIDTH 12 0
BBX 12 24 0 -5
BITMAP
0180
0300
0600
0000
6060
6060
30C0
30C0
1980
1980
0F00
0F00
0600
0600
0600
0600
0600
0600
0600
0000
0000
0000
0000
0000
ENDCHAR

STARTCHAR Thorn
ENCODING 222
SWIDTH 500 0
DWIDTH 12 0
BBX 12 24 0 -5
BITMAP
0000
0000
0000
0000
6000
6000
6000
7F80
60C0
6060
6060
6060
6060
60C0
7F80
6000
6000
6000
6000
0000
0000
0000
0000
0000
ENDCHAR

STARTCHAR germandbls
ENCODING 223
SWIDTH 500 0
DWIDTH 12 0
BBX 12 24 0 -5
BITMAP
0000
0000
0000
0000
3F00
6180
60C0
60C0
60C0
6180
7F80
60C0
6060
6060
6060
6060
7060
68C0
6F80
0000
0000
0000
0000
0000
ENDCHAR

STARTCHAR agrave
ENCODING 224
SWIDTH 500 0
DWIDTH 12 0
BBX 12 24 0 -5
BITMAP
0000
0000
0000
0000
1800
0C00
0600
0000
3F80
00C0
0060
0060
1FE0
3060
6060
6060
6060
3060
1FE0
0000
0000
0000
0000
0000
ENDCHAR

STARTCHAR aacute
ENCODING 225
SWIDTH 500 0
DWIDTH 12 0
BBX 12 24 0 -5
BITMAP
0000
0000
0000
0000
0180
0300
0600
0000
3F80
00C0
0060
0060
1FE0
3060
6060
6060
6060
3060
1FE0
0000
0000
0000
0000
0000
ENDCHAR

STARTCHAR acircumflex
ENCODING 226
SWIDTH 500 0
DWIDTH 12 0
BBX 12 24 0 -5
BITMAP
0000
0000
0000
0000
0600
0F00
1980
0000
3F80
00C0
0060
0060
1FE0
3060
6060
6060
6060
3060
1FE0
0000
0000
0000
0000
0000
ENDCHAR

STARTCHAR atilde
ENCODING 227
SWIDTH 500 0
DWIDTH 12 0
BBX 12 24 0 -5
BITMAP
0000
0000
0000
0000
1CC0
36C0
3380
0000
3F80
00C0
0060
0060
1FE0
3060
6060
6060
6060
3060
1FE0
0000
0000
0000
0000
0000
ENDCHAR

STARTCHAR adieresis
ENCODING 228
SWIDTH 500 0
DWIDTH 12 0
BBX 12 24 0 -5
BITMAP
0000
0000
0000
0000
1980
1980
1980
0000
3F80
00C0
0060
0060
1FE0
3060
6060
6060
6060
3060
1FE0
0000
0000
0000
0000
0000
ENDCHAR

STARTCHAR aring
ENCODING 229
SWIDTH 500 0
DWIDTH 12 0
BBX 12 24 0 -5
BITMAP
0000
0000
0000
0000
0F00
1980
1980
0F00
3F80
00C0
0060
0060
1FE0
3060
6060
6060
6060
3060
1FE0
0000
0000
0000
0000
0000
ENDCHAR

STARTCHAR ae
ENCODING 230
SWIDTH 500 0
DWIDTH 12 0
BBX 12 24 0 -5
BITMAP
0000
0000
0000
0000
0000
0000
0000
0000
7BE0
0E30
0630
0630
7E30
C7F0
C600
C600
C600
C730
7DE0
0000
0000
0000
0000
0000
ENDCHAR

STARTCHAR ccedilla
ENCODING 231
SWIDTH 500 0
DWIDTH 12 0
BBX 12 24 0 -5
BITMAP
0000
0000
0000
0000
0000
0000
0000
0000
1F80
30C0
6060
6000
6000
6000
6000
6000
6060
30C0
1F80
0600
0600
0600
0C00
0000
ENDCHAR

STARTCHAR egrave
ENCODING 232
SWIDTH 500 0
DWIDTH 12 0
BBX 12 24 0 -5
BITMAP
0000
0000
0000
0000
1800
0C00
0600
0000
1F80
30C0
6060
6060
6060
7FE0
6000
6000
6000
3060
1FC0
0000
0000
0000
0000
0000
ENDCHAR

STARTCHAR eacute
ENCODING 233
SWIDTH 500 0
DWIDTH 12 0
BBX 12 24 0 -5
BITMAP
0000
0000
0000
0000
0180
0300
0600
0000
1F80
30C0
6060
6060
6060
7FE0
6000
6000
6000
3060
1FC0
0000
0000
0000
0000
0000
ENDCHAR

STARTCHAR ecircumflex
ENCODING 234
SWIDTH 500 0
DWIDTH 12 0
BBX 12 24 0 -5
BITMAP
0000
0000
0000
0000
0600
0F00
1980
0000
1F80
30C0
6060
6060
6060
7FE0
6000
6000
6000
3060
1FC0
0000
0000
0000
0000
0000
ENDCHAR

STARTCHAR edieresis
ENCODING 235
SWIDTH 500 0
DWIDTH 12 0
BBX 12 24 0 -5
BITMAP
0000
0000
0000
0000
1980
1980
1980
0000
1F80
30C0
6060
6060
6060
7FE0
6000
6000
6000
3060
1FC0
0000
0000
0000
0000
0000
ENDCHAR

STARTCHAR igrave
ENCODING 236
SWIDTH 500 0
DWIDTH 12 0
BBX 12 24 0 -5
BITMAP
0000
0000
0000
0000
1800
0C00
0600
0000
1E00
0600
0600
0600
0600
0600
0600
0600
0600
0600
1F80
0000
0000
0000
0000
0000
ENDCHAR

STARTCHAR iacute
ENCODING 237
SWIDTH 500 0
DWIDTH 12 0
BBX 12 24 0 -5
BITMAP
0000
0000
0000
0000
0180
0300
0600
0000
1E00
0600
0600
0600
0600
0600
0600
0600
0600
0600
1F80
0000
0000
0000
0000
0000
ENDCHAR

STARTCHAR icircumflex
ENCODING 238
SWIDTH 500 0
DWIDTH 12 0
BBX 12 24 0 -5
BITMAP
0000
0000
0000
0000
0600
0F00
1980
0000
1E00
0600
0600
0600
0600
0600
0600
0600
0600
0600
1F80
0000
0000
0000
0000
0000
ENDCHAR

STARTCHAR idieresis
ENCODING 239
SWIDTH 500 0
DWIDTH 12 0
BBX 12 24 0 -5
BITMAP
0000
0000
0000
0000
1980
1980
1980
0000
1E00
0600
0600
0600
0600
0600
0600
0600
0600
0600
1F80
0000
0000
0000
0000
0000
ENDCHAR

STARTCHAR eth
ENCODING 240
SWIDTH 500 0
DWIDTH 12 0
BBX 12 24 0 -5
BITMAP
0000
0000
0000
0000
3600
1C00
3600
0300
1F80
30C0
6060
6060
6060
6060
6060
6060
6060
30C0
1F80
0000
0000
0000
0000
0000
ENDCHAR

STARTCHAR ntilde
ENCODING 241
SWIDTH 500 0
DWIDTH 12 0
BBX 12 24 0 -5
BITMAP
0000
0000
0000
0000
1CC0
36C0
3380
0000
7F80
60C0
6060
6060
6060
6060
6060
6060
6060
6060
6060
0000
0000
0000
0000
0000
ENDCHAR

STARTCHAR ograve
ENCODING 242
SWIDTH 500 0
DWIDTH 12 0
BBX 12 24 0 -5
BITMAP
0000
0000
0000
0000
1800
0C00
0600
0000
1F80
30C0
6060
6060
6060
6060
6060
6060
6060
30C0
1F80
0000
0000
0000
0000
0000
ENDCHAR

STARTCHAR oacute
ENCODING 243
SWIDTH 500 0
DWIDTH 12 0
BBX 12 24 0 -5
BITMAP
0000
0000
0000
0000
0180
0300
0600
0000
1F80
30C0
6060
6060
6060
6060
6060
6060
6060
30C0
1F80
0000
0000
0000
0000
0000
ENDCHAR

STARTCHAR ocircumflex
ENCODING 244
SWIDTH 500 0
DWIDTH 12 0
BBX 12 24 0 -5
BITMAP
0000
0000
0000
0000
0600
0F00
1980
0000
1F80
30C0
6060
6060
6060
6060
6060
6060
6060
30C0
1F80
0000
0000
0000
0000
0000
ENDCHAR

STARTCHAR otilde
ENCODING 245
SWIDTH 500 0
DWIDTH 12 0
BBX 12 24 0 -5
BITMAP
0000
0000
0000
0000
1CC0
36C0
3380
0000
1F80
30C0
6060
6060
6060
6060
6060
6060
6060
30C0
1F80
0000
0000
0000
0000
0000
ENDCHAR

STARTCHAR odieresis
ENCODING 246
SWIDTH 500 0
DWIDTH 12 0
BBX 12 24 0 -5
BITMAP
0000
0000
0000
0000
1980
1980
1980
0000
1F80
30C0
6060
6060
6060
6060
6060
6060
6060
30C0
1F80
0000
0000
0000
0000
0000
ENDCHAR

STARTCHAR divide
ENCODING 247
SWIDTH 500 0
DWIDTH 12 0
BBX 12 24 0 -5
BITMAP
0000
0000
0000
0000
0000
0000
0600
0600
0600
0000
0000
7FE0
0000
0000
0600
0600
0600
0000
0000
0000
0000
0000
0000
0000
ENDCHAR

STARTCHAR oslash
ENCODING 248
SWIDTH 500 0
DWIDTH 12 0
BBX 12 24 0 -5
BITMAP
0000
0000
0000
0000
0000
0000
0000
0000
1FA0
30C0
60E0
61E0
6360
6660
6C60
7860
7060
30C0
5F80
0000
0000
0000
0000
0000
ENDCHAR

STARTCHAR ugrave
ENCODING 249
SWIDTH 500 0
DWIDTH 12 0
BBX 12 24 0 -5
BITMAP
0000
0000
0000
0000
1800
0C00
0600
0000
6060
6060
6060
6060
6060
6060
6060
6060
6060
3060
1FE0
0000
0000
0000
0000
0000
ENDCHAR

STARTCHAR uacute
ENCODING 250
SWIDTH 500 0
DWIDTH 12 0
BBX 12 24 0 -5
BITMAP
0000
0000
0000
0000
0180
0300
0600
0000
6060
6060
6060
6060
6060
6060
6060
6060
6060
3060
1FE0
0000
0000
0000
0000
0000
ENDCHAR

STARTCHAR ucircumflex
ENCODING 251
SWIDTH 500 0
DWIDTH 12 0
BBX 12 24 0 -5
BITMAP
0000
0000
0000
0000
0600
0F00
1980
0000
6060
6060
6060
6060
6060
6060
6060
6060
6060
3060
1FE0
0000
0000
0000
0000
0000
ENDCHAR

STARTCHAR udieresis
ENCODING 252
SWIDTH 500 0
DWIDTH 12 0
BBX 12 24 0 -5
BITMAP
0000
0000
0000
0000
1980
1980
1980
0000
6060
6060
6060
6060
6060
6060
6060
6060
6060
3060
1FE0
0000
0000
0000
0000
0000
ENDCHAR

STARTCHAR yacute
ENCODING 253
SWIDTH 500 0
DWIDTH 12 0
BBX 12 24 0 -5
BITMAP
0000
0000
0000
0000
0180
0300
0600
0000
6060
6060
6060
6060
6060
6060
6060
6060
6060
30E0
1FE0
0060
0060
00C0
3F80
0000
ENDCHAR

STARTCHAR thorn
ENCODING 254
SWIDTH 500 0
DWIDTH 12 0
BBX 12 24 0 -5
BITMAP
0000
0000
0000
0000
6000
6000
6000
6000
7F80
60C0
6060
6060
6060
6060
6060
6060
6060
60C0
7F80
6000
6000
6000
6000
0000
ENDCHAR

STARTCHAR ydieresis
ENCODING 255
SWIDTH 500 0
DWIDTH 12 0
BBX 12 24 0 -5
BITMAP
0000
0000
0000
0000
1980
1980
1980
0000
6060
6060
6060
6060
6060
6060
6060
6060
6060
30E0
1FE0
0060
0060
00C0
3F80
0000
ENDCHAR

ENDFONT
